<?xml version="1.0" standalone="no"?>
<!DOCTYPE svg PUBLIC "-//W3C//DTD SVG 1.1//EN" "http://www.w3.org/Graphics/SVG/1.1/DTD/svg11.dtd" >
<svg xmlns="http://www.w3.org/2000/svg">
<metadata></metadata>
<defs>
<font id="cocon_condensedregular" horiz-adv-x="1003" >
<font-face units-per-em="2048" ascent="1638" descent="-410" />
<missing-glyph horiz-adv-x="407" />
<glyph horiz-adv-x="2048" />
<glyph horiz-adv-x="2048" />
<glyph unicode="&#xd;" horiz-adv-x="2048" />
<glyph unicode=" "  horiz-adv-x="407" />
<glyph unicode="&#x09;" horiz-adv-x="407" />
<glyph unicode="&#xa0;" horiz-adv-x="407" />
<glyph unicode="!" horiz-adv-x="534" d="M115 154q0 65 44.5 110t108.5 45q65 0 110.5 -45.5t45.5 -109.5t-46 -110t-110 -46t-108.5 45.5t-44.5 110.5zM125 1403h115q65 0 102.5 -41.5t36.5 -114.5l-25 -805h-78q-57 0 -89.5 39t-34.5 105z" />
<glyph unicode="&#x22;" horiz-adv-x="755" d="M98 1417h109q65 0 103 -42.5t32 -119.5l-31 -372h-57q-54 0 -83.5 37t-35.5 100zM434 1417h109q67 0 104.5 -42.5t30.5 -119.5l-31 -372h-57q-53 0 -83 37.5t-36 99.5z" />
<glyph unicode="#" d="M18 385v59q0 52 28.5 81.5t84.5 29.5h68l43 301h-152v57q0 55 30 84t85 29h61l56 379h63q53 0 81 -29.5t26 -79.5q0 -8 -3 -20l-36 -250h188l55 379h64q50 0 78.5 -31.5t27.5 -87.5q0 -19 -6 -49l-31 -211h154v-57q0 -113 -113 -113h-67l-43 -301h153v-57 q0 -113 -114 -113h-64l-53 -385h-70q-53 0 -78.5 27.5t-23.5 76.5q0 13 4 33l35 248h-189l-53 -385h-69q-51 0 -77 30t-24 79q0 20 2 30l35 246h-156zM385 555h188l43 301h-188z" />
<glyph unicode="$" d="M82 985q0 165 91.5 274t238.5 144v235h75q46 0 74.5 -27t28.5 -77v-119q144 -10 221.5 -79t77.5 -167v-125h-12q-94 146 -314 146q-114 0 -173.5 -49t-59.5 -135q0 -57 50.5 -102t192.5 -97q170 -61 258.5 -159t88.5 -224q0 -176 -88.5 -293.5t-241.5 -142.5v-242h-70 q-53 0 -80.5 26t-27.5 85v125q-153 13 -233.5 85.5t-80.5 188.5v115h11q50 -77 139.5 -119.5t193.5 -42.5q230 0 230 192q0 72 -51.5 119t-196.5 98q-85 30 -143.5 60.5t-105.5 73.5t-70 100.5t-23 132.5z" />
<glyph unicode="%" horiz-adv-x="1761" d="M74 958q0 221 84 345t237 124q142 0 224.5 -122.5t82.5 -327.5q0 -221 -82 -345t-237 -124q-140 0 -224.5 123t-84.5 327zM274 979q0 -139 32 -206.5t89 -67.5q107 0 107 249q0 149 -30 212t-91 63q-49 0 -78 -61.5t-29 -188.5zM559 100q0 37 23 101l452 1202h62 q34 0 58 -26.5t24 -73.5q0 -36 -21 -97l-452 -1206h-62q-37 0 -60.5 27.5t-23.5 72.5zM1059 424q0 221 83 345t236 124q142 0 226 -123t84 -328q0 -221 -82.5 -345t-237.5 -124q-140 0 -224.5 123.5t-84.5 327.5zM1260 444q0 -274 120 -274q107 0 107 250q0 149 -30 211.5 t-91 62.5q-48 0 -77 -62t-29 -188z" />
<glyph unicode="&#x26;" horiz-adv-x="1261" d="M102 375q0 113 68 224t168 185q-55 83 -84 147.5t-29 131.5q0 163 90.5 263.5t259.5 100.5q148 0 230 -85.5t82 -237.5q0 -106 -72.5 -207.5t-193.5 -183.5q81 -131 215 -293q114 164 114 371h62q46 0 77 -39.5t31 -100.5q0 -79 -43.5 -183.5t-101.5 -191.5 q59 -71 103 -98.5t89 -30.5l33 -2q0 -72 -33 -114.5t-102 -42.5q-50 0 -84.5 12t-69.5 47l-73 74q-114 -146 -330 -146q-189 0 -297.5 100t-108.5 300zM338 389q0 -109 47.5 -159t144.5 -50q54 0 100 22t72 60q-14 18 -59 74.5t-73.5 93.5t-65 87.5t-58.5 86.5 q-108 -97 -108 -215zM451 1079q0 -55 18.5 -99.5t56.5 -105.5q75 53 112.5 105.5t37.5 114.5q0 137 -109 137q-52 0 -84 -36t-32 -116z" />
<glyph unicode="'" horiz-adv-x="491" d="M119 1405h108q65 0 103 -42.5t32 -119.5l-30 -373h-58q-104 0 -118 138z" />
<glyph unicode="(" horiz-adv-x="632" d="M78 545q0 266 70 489.5t171 345.5q31 38 83 66.5t106 28.5h108v-9q-288 -357 -288 -880q0 -307 81 -547t209 -377v-8h-98q-116 0 -207 98q-85 92 -160 313.5t-75 479.5z" />
<glyph unicode=")" horiz-adv-x="632" d="M14 1466v9h99q114 0 206 -99q85 -93 160.5 -313.5t75.5 -478.5q0 -266 -70 -490t-172 -346q-31 -38 -81.5 -66t-106.5 -28h-109v8q289 355 289 881q0 307 -81 545.5t-210 377.5z" />
<glyph unicode="*" horiz-adv-x="1126" d="M98 995q0 108 48 180t135 72q32 0 56 -13.5t50 -45.5q45 -58 117 -96q4 46 4 67q0 79 -25.5 161t-74.5 130q79 27 133 27q78 2 126 -38.5t48 -113.5q0 -51 -37 -131q-34 -76 -39 -94q72 3 165 66t126 128q80 -109 80 -186q0 -69 -39.5 -109.5t-108.5 -40.5q-22 0 -66 5.5 t-67 5.5q-19 0 -59 -4q9 -10 25.5 -33t25.5 -33q28 -34 47 -53.5t48.5 -45t61.5 -37.5t66 -11q-17 -32 -32 -55t-37 -48.5t-50 -39t-59 -13.5q-34 0 -71 20t-56 48q-11 17 -19.5 45t-16.5 66.5t-11 49.5q-3 13 -14.5 37.5t-14.5 36.5q-76 -86 -98.5 -150.5t-22.5 -158.5 q-211 0 -211 166q0 92 115 145q45 19 98 68q-118 49 -219 49q-77 0 -127 -23z" />
<glyph unicode="+" d="M51 485v97q0 39 30 68.5t77 29.5h254v391h102q37 0 66.5 -31.5t29.5 -83.5v-276h344v-88q0 -43 -34 -75t-89 -32h-221v-419h-86q-47 0 -79.5 38t-32.5 97v284h-361z" />
<glyph unicode="," horiz-adv-x="555" d="M113 -266q45 41 74.5 93.5t29.5 104.5q0 29 -14.5 60t-32.5 47q-51 51 -51 106q0 70 43.5 112t113.5 42q74 0 120 -57t46 -158q0 -163 -90.5 -263t-238.5 -106v19z" />
<glyph unicode="-" horiz-adv-x="622" d="M76 526v70q0 56 33 88.5t92 32.5h344v-74q0 -47 -32 -82t-81 -35h-356z" />
<glyph unicode="." horiz-adv-x="546" d="M119 156q0 65 44.5 110t108.5 45q65 0 110.5 -45.5t45.5 -109.5t-46 -110t-110 -46t-108.5 45.5t-44.5 110.5z" />
<glyph unicode="/" horiz-adv-x="735" d="M45 106q0 46 21 101l481 1268h61q39 0 62.5 -29.5t23.5 -73.5q0 -35 -16 -78l-488 -1294h-59q-36 0 -61 28t-25 78z" />
<glyph unicode="0" d="M59 682q0 377 120.5 561t334.5 184q198 0 315 -179.5t117 -526.5q0 -365 -113.5 -555.5t-338.5 -190.5q-194 0 -314.5 183t-120.5 524zM307 721q0 -125 10.5 -218t28.5 -150t45 -92t56 -47.5t67 -12.5q30 0 56 13.5t50.5 47.5t41.5 87t27.5 137.5t10.5 193.5 q0 199 -22.5 314t-66 161.5t-117.5 46.5q-84 0 -135.5 -117.5t-51.5 -363.5z" />
<glyph unicode="1" horiz-adv-x="778" d="M-10 1206l248 131q75 39 122 52.5t101 13.5q56 0 94.5 -40.5t38.5 -98.5v-1264h-105q-68 0 -108.5 41.5t-40.5 116.5v981l-143 -64q-77 -31 -129 -8.5t-66 84.5z" />
<glyph unicode="2" d="M90 125q0 64 38 140.5t136 183.5l217 237q85 94 126.5 166t41.5 139q0 104 -56 154.5t-153 50.5q-120 0 -193.5 -40.5t-127.5 -129.5h-10v96q0 134 96.5 219.5t300.5 85.5q178 0 290.5 -116t112.5 -293q0 -122 -47 -213t-186 -240l-209 -223q-70 -77 -86 -115h547v-104 q0 -61 -43 -92t-115 -31h-557q-53 0 -88 34.5t-35 90.5z" />
<glyph unicode="3" d="M68 233v117h10q113 -147 338 -147q98 0 153.5 56.5t55.5 143.5q0 98 -48.5 144.5t-152.5 52.5q-141 9 -141 109v84q7 1 120 6q114 6 163.5 53t49.5 135q0 215 -221 215q-207 0 -309 -155h-10v114q0 47 23.5 93.5t66.5 85.5t113.5 63t156.5 24q186 0 309 -107.5 t123 -283.5q0 -133 -56 -217.5t-148 -113.5q88 -29 149 -110t61 -171q0 -209 -120.5 -329t-341.5 -120q-152 0 -248 71.5t-96 186.5z" />
<glyph unicode="4" d="M29 453q0 80 28 149q78 182 229.5 441.5t252.5 359.5h104q68 0 111 -48t43 -141v-661h174v-111q0 -51 -31 -80.5t-82 -29.5h-61v-332h-99q-69 0 -108 38.5t-39 113.5v180h-389q-57 0 -95 36t-38 85zM262 555h285v563q-58 -94 -147 -270.5t-138 -292.5z" />
<glyph unicode="5" d="M102 233v103h11q109 -135 331 -135q121 0 175.5 57.5t54.5 171.5q0 111 -63.5 163t-204.5 52q-133 0 -283 -55v588q0 117 43.5 171t142.5 54h582v-64q0 -70 -44 -115.5t-118 -45.5h-367v-340q62 16 142 16q87 0 162.5 -26t133.5 -76t91 -129t33 -179q0 -224 -125 -346.5 t-334 -122.5q-166 0 -264.5 66t-98.5 192z" />
<glyph unicode="6" d="M86 639q0 387 143.5 587.5t386.5 200.5q120 0 196.5 -66t76.5 -165v-86h-10q-76 96 -263 96q-128 0 -204 -109t-80 -333q28 60 91.5 100.5t143.5 40.5q168 0 272.5 -117t104.5 -327q0 -71 -15 -138.5t-49 -131t-83.5 -111.5t-124 -76.5t-164.5 -28.5q-192 0 -307 165 t-115 499zM336 487q0 -135 50 -212.5t136 -77.5q174 0 174 239q0 250 -174 250q-86 0 -136 -58.5t-50 -140.5z" />
<glyph unicode="7" d="M88 1174v75q0 70 42.5 112t113.5 42h516q84 0 128 -39.5t44 -106.5q0 -73 -105 -313l-172 -387q-44 -99 -72 -207.5t-28 -177.5v-172h-109q-62 0 -102.5 38.5t-40.5 131.5q0 97 31.5 202t95.5 246l158 347q59 126 76 209h-576z" />
<glyph unicode="8" d="M84 377q0 105 56.5 195.5t135.5 125.5q-82 37 -133 125.5t-51 210.5q0 172 121 282.5t289 110.5q182 0 295.5 -111.5t113.5 -297.5q0 -119 -53 -194t-139 -109q84 -36 142.5 -123.5t58.5 -198.5q0 -193 -110.5 -305.5t-326.5 -112.5q-188 0 -293.5 113t-105.5 289z M334 416q0 -215 174 -215q76 0 119 50.5t43 147.5q0 100 -46 151.5t-132 51.5q-69 0 -113.5 -54t-44.5 -132zM338 1016q0 -92 44 -147.5t126 -55.5q71 0 113.5 52.5t42.5 133.5q0 99 -42 148t-130 49q-73 0 -113.5 -49t-40.5 -131z" />
<glyph unicode="9" d="M59 918q0 105 27 195.5t79.5 161.5t138.5 111.5t196 40.5q411 0 411 -665q0 -410 -114 -598.5t-351 -188.5q-132 0 -224.5 66t-92.5 172v102h16q92 -116 287 -116q50 0 88 18.5t69 62t48.5 121.5t21.5 189q-28 -59 -78.5 -91t-117.5 -32q-179 0 -291.5 120t-112.5 331z M311 948q0 -138 44.5 -200t129.5 -62q81 0 127.5 57t46.5 152q0 176 -45.5 244.5t-140.5 68.5q-75 0 -118.5 -69t-43.5 -191z" />
<glyph unicode=":" horiz-adv-x="552" d="M119 156q0 65 44.5 110t108.5 45q65 0 110.5 -45.5t45.5 -109.5q0 -63 -46 -109.5t-110 -46.5t-108.5 46t-44.5 110zM119 952q0 65 44.5 110.5t108.5 45.5t110 -46t46 -110t-45.5 -109.5t-110.5 -45.5q-64 0 -108.5 45t-44.5 110z" />
<glyph unicode=";" horiz-adv-x="552" d="M113 -266q45 41 74.5 93.5t29.5 104.5q0 29 -14.5 60t-32.5 47q-51 51 -51 106q0 70 43.5 112t113.5 42q74 0 120 -57t46 -158q0 -163 -90.5 -263t-238.5 -106v19zM119 952q0 65 44.5 110.5t108.5 45.5t110 -46t46 -110t-45.5 -109.5t-110.5 -45.5q-64 0 -108.5 45 t-44.5 110z" />
<glyph unicode="&#x3c;" d="M53 553v51q0 43 23.5 72.5t73.5 62.5q127 83 342 197.5t374 177.5v-86q0 -127 -127 -182q-83 -38 -207.5 -105t-218.5 -129q95 -72 260.5 -168.5t286.5 -158.5v-60q0 -46 -28.5 -68t-67.5 -22q-49 0 -121 33q-122 60 -299.5 174t-290.5 211z" />
<glyph unicode="=" d="M98 330v76q0 46 33.5 76t87.5 30h682v-78q0 -48 -36 -76t-85 -28h-682zM98 756v78q0 47 33 77.5t88 30.5h682v-82q0 -45 -36 -74.5t-85 -29.5h-682z" />
<glyph unicode="&#x3e;" d="M102 127v86q0 125 127 182q81 36 206 103.5t220 130.5q-95 72 -260.5 169t-285.5 158v60q0 46 28.5 68t67.5 22q49 0 121 -33q122 -60 299 -174t290 -211v-51q0 -43 -23.5 -72.5t-72.5 -62.5q-127 -83 -342.5 -197.5t-374.5 -177.5z" />
<glyph unicode="?" horiz-adv-x="827" d="M82 1090v94q0 94 79.5 168.5t221.5 74.5q164 0 260 -96.5t96 -243.5q0 -86 -31.5 -154t-95.5 -147l-123 -151q-26 -32 -35.5 -58.5t-9.5 -68.5v-92h-94q-45 0 -76.5 30.5t-31.5 75.5q0 121 80 223l129 162q47 59 47 156q0 77 -42.5 117.5t-119.5 40.5q-174 0 -244 -131 h-10zM217 156q0 65 45 110t109 45q63 0 109 -45.5t46 -109.5t-46 -110t-109 -46q-64 0 -109 45.5t-45 110.5z" />
<glyph unicode="@" horiz-adv-x="1349" d="M82 655q0 163 47 312.5t130 263t207 181t269 67.5q154 0 276 -81t189.5 -224t67.5 -320q0 -235 -99 -385t-249 -150q-113 0 -146 144q-76 -146 -194 -146q-88 0 -153 96t-65 244q0 214 105 349t266 135q76 0 139 -43t95 -115q-47 -313 -47 -405q0 -91 38 -91 q21 0 43.5 21t44.5 61.5t36 113t14 163.5q0 209 -100 341t-277 132q-92 0 -175 -45t-147 -126.5t-101.5 -205t-37.5 -270.5q0 -253 113 -397t293 -144q184 0 307 72v-64q0 -89 -92 -131q-88 -37 -244 -37q-111 0 -211 48t-176 135t-121 217t-45 284zM563 672q0 -170 66 -170 q43 0 69 40.5t44 131.5t36 266q-27 27 -71 27q-51 0 -97.5 -85.5t-46.5 -209.5z" />
<glyph unicode="A" horiz-adv-x="1073" d="M31 125q0 101 62 359.5t156.5 533t172.5 385.5h102q66 0 116.5 -39t78.5 -96q83 -175 190.5 -578.5t139.5 -689.5h-93q-73 0 -120.5 36t-53.5 89q-7 66 -37 233h-444q-24 -115 -57 -358h-109q-56 0 -80 31t-24 94zM348 553h352q-28 141 -78.5 312.5t-97.5 285.5 q-51 -121 -99 -284t-77 -314z" />
<glyph unicode="B" horiz-adv-x="1052" d="M115 309v1041q48 21 144 42t163 21h139q172 0 280.5 -100.5t108.5 -270.5q0 -116 -49 -193t-137 -110q89 -32 148 -122t59 -189q0 -203 -114.5 -321.5t-287.5 -118.5h-131q-162 0 -242.5 83.5t-80.5 237.5zM358 827h166q81 0 131 44.5t50 142.5q0 93 -49 135.5t-124 42.5 h-83q-43 0 -91 -10v-355zM360 311q0 -43 28 -72.5t69 -29.5h86q89 0 135.5 54t46.5 157q0 117 -46.5 162t-146.5 45h-172v-316z" />
<glyph unicode="C" horiz-adv-x="1030" d="M86 686q0 213 70.5 381t203 264t306.5 96q146 0 234.5 -78.5t88.5 -207.5v-97h-12q-108 154 -299 154q-145 0 -242.5 -129.5t-97.5 -343.5q0 -259 96.5 -389.5t243.5 -130.5q111 0 182.5 35.5t118.5 103.5h10v-94q0 -125 -93 -200t-255 -75q-73 0 -148.5 26t-149 83 t-130.5 138t-92 201.5t-35 262.5z" />
<glyph unicode="D" horiz-adv-x="1165" d="M115 289v1063q46 21 136 40t152 19h129q89 0 170 -25.5t152.5 -81t124 -135t83 -194.5t30.5 -254q0 -335 -151 -534t-396 -199h-107q-153 0 -238 75t-85 226zM360 336q0 -65 26.5 -94t90.5 -29h45q140 0 230 124.5t90 348.5q0 253 -87 376.5t-247 123.5h-64 q-37 0 -84 -15v-835z" />
<glyph unicode="E" horiz-adv-x="964" d="M102 537v262q0 210 23 409q13 108 57 151.5t119 43.5h621v-96q0 -63 -39 -96t-111 -33h-403q-21 -159 -21 -363h443v-94q0 -58 -35.5 -89.5t-100.5 -31.5h-307v-78q0 -124 24.5 -191t75 -92.5t144.5 -25.5h76q149 0 237 37v-90q0 -172 -246 -172h-116q-441 0 -441 549z " />
<glyph unicode="F" horiz-adv-x="843" d="M119 145v1065q0 110 43.5 151.5t144.5 41.5h524v-98q0 -51 -33 -89t-93 -38h-340v-361h397v-82q0 -50 -36.5 -86.5t-84.5 -36.5h-270v-612h-109q-64 0 -103.5 37t-39.5 108z" />
<glyph unicode="G" horiz-adv-x="1122" d="M82 682q0 173 50 316t136.5 235.5t200 143t242.5 50.5q152 0 233.5 -77.5t81.5 -182.5v-94h-10q-102 125 -324 125q-69 0 -133 -32t-114.5 -91t-80.5 -151.5t-30 -204.5q0 -255 96.5 -384.5t247.5 -129.5q77 0 104 28.5t27 104.5v123q0 42 -4 87.5t-8 74.5t-4 32h120 q55 0 91 -36t36 -82v-228q0 -165 -89 -249.5t-294 -84.5q-116 0 -220.5 50.5t-183 140.5t-125 224t-46.5 292z" />
<glyph unicode="H" horiz-adv-x="1153" d="M119 162v1239h102q62 0 103 -40.5t41 -103.5v-434h423v578h109q55 0 96 -40t41 -104v-1257h-88q-63 0 -110.5 44t-47.5 118v450h-421v-612h-97q-62 0 -106.5 42.5t-44.5 119.5z" />
<glyph unicode="I" horiz-adv-x="499" d="M125 164v1239h106q59 0 101.5 -40.5t42.5 -105.5v-1257h-92q-65 0 -111.5 42.5t-46.5 121.5z" />
<glyph unicode="J" horiz-adv-x="704" d="M6 131v115h12q80 -43 166 -43q74 0 112 39.5t38 138.5v1022h78q170 0 170 -168v-864q0 -183 -91 -287t-272 -104q-96 0 -154.5 44t-58.5 107z" />
<glyph unicode="K" horiz-adv-x="1026" d="M119 166v1237h78q165 0 165 -160v-461q235 431 318 533q45 54 77 71t93 17h158v-10q-70 -90 -200 -293t-212 -350q214 -396 305 -521q75 -104 117 -118q-13 -64 -48.5 -92.5t-97.5 -28.5q-101 0 -155 78q-147 216 -355 632v-700h-75q-83 0 -125.5 43.5t-42.5 122.5z" />
<glyph unicode="L" horiz-adv-x="874" d="M129 432v971h90q156 0 156 -174v-770q0 -136 45.5 -191t150.5 -55h70q141 0 229 41v-82q0 -107 -58 -145.5t-175 -38.5h-111q-192 0 -294.5 113t-102.5 331z" />
<glyph unicode="M" horiz-adv-x="1591" d="M106 162q0 290 29 641t66 600h53q120 0 207.5 -74.5t128.5 -226.5l151 -551q5 -20 17.5 -59.5t20.5 -71.5t16 -74q19 91 53 205l139 491q37 133 81.5 231t82.5 130h31q98 0 158.5 -78t76.5 -205q32 -256 49.5 -561t18.5 -559h-99q-159 0 -159 162q0 154 -12.5 429.5 t-30.5 420.5q-21 -58 -45 -146l-172 -630q-39 -146 -88 -236h-70q-65 0 -118.5 73t-104.5 259l-150 547q-10 39 -41 133q-21 -172 -36 -490t-15 -522h-88q-69 0 -109.5 45t-40.5 117z" />
<glyph unicode="N" horiz-adv-x="1179" d="M119 166v1237h114q225 0 332 -285l191 -508q52 -138 73 -219v1012h107q50 0 87.5 -38t37.5 -99v-1266h-94q-46 0 -85.5 15t-82 52.5t-84.5 108t-82 174.5l-217 557q-8 20 -29 70t-31 76v-1053h-98q-55 0 -97 45.5t-42 120.5z" />
<glyph unicode="O" horiz-adv-x="1208" d="M86 682q0 346 137.5 545.5t394.5 199.5q104 0 194.5 -46t160 -132.5t109.5 -222t40 -303.5q0 -354 -143 -551t-387 -197q-103 0 -194 48t-161 136.5t-110.5 223.5t-40.5 299zM330 723q0 -520 288 -520q117 0 189 121.5t72 359.5q0 267 -71 391.5t-212 124.5 q-118 0 -192 -123t-74 -354z" />
<glyph unicode="P" horiz-adv-x="970" d="M119 170v1190q68 19 163.5 37t153.5 18h115q177 0 293.5 -116.5t116.5 -313.5q0 -216 -116 -344.5t-298 -128.5q-121 0 -185 35v-547h-92q-71 0 -111 42t-40 128zM362 750q54 -21 162 -21q86 0 138.5 57.5t52.5 167.5q0 240 -203 240h-41q-55 0 -109 -14v-430z" />
<glyph unicode="Q" horiz-adv-x="1220" d="M84 680q0 163 32 297.5t96 236t167.5 157.5t238.5 56q74 0 145 -25.5t136 -82t114 -137.5t78 -200.5t29 -262.5q0 -278 -81.5 -447t-225.5 -211q102 -41 363 -49v-94q0 -40 -28 -69t-71 -29q-96 0 -260 43t-330 119q-105 40 -183.5 112t-126 165t-70.5 198t-23 223z M332 719q0 -520 295 -520q119 0 185.5 128.5t66.5 354.5q0 276 -73 398t-214 122q-89 0 -148.5 -65t-85.5 -170.5t-26 -247.5z" />
<glyph unicode="R" horiz-adv-x="1058" d="M121 168v1190q46 18 144.5 37.5t158.5 19.5h129q180 0 299 -111t119 -292q0 -137 -72.5 -234t-179.5 -121q96 -47 153 -206l80 -222q41 -115 90 -196q-34 -39 -135 -39q-121 0 -159 108l-99 279q-32 93 -65.5 129.5t-83.5 46.5q-34 7 -83 12.5t-50 5.5v-575h-93 q-75 0 -114 45.5t-39 122.5zM367 788q60 -14 178 -14q72 0 124 57t52 152q0 119 -48 165t-132 46h-66q-55 0 -108 -16v-390z" />
<glyph unicode="S" horiz-adv-x="985" d="M66 987q0 87 30 165.5t85.5 140t144.5 98t198 36.5q180 0 266.5 -73.5t86.5 -188.5v-118h-11q-106 155 -307 155q-117 0 -181.5 -50t-64.5 -140q0 -74 55.5 -120t194.5 -89q352 -108 352 -387q0 -201 -119.5 -321t-330.5 -120q-176 0 -271.5 77t-95.5 212v96h11 q52 -72 139.5 -115.5t189.5 -43.5q118 0 174 48.5t56 145.5q0 86 -54.5 130.5t-212.5 92.5q-155 48 -245 141.5t-90 227.5z" />
<glyph unicode="T" horiz-adv-x="952" d="M16 1178v92q0 51 37 92t101 41h782v-86q0 -50 -41 -94.5t-96 -44.5h-209v-1180h-98q-148 0 -148 152v1028h-328z" />
<glyph unicode="U" horiz-adv-x="1140" d="M113 530v873h94q66 0 107.5 -48t41.5 -155v-663q0 -169 57 -247.5t169 -78.5q107 0 154.5 72.5t47.5 238.5v881h95q149 0 149 -195v-680q0 -269 -120 -411t-353 -142q-206 0 -324 145.5t-118 409.5z" />
<glyph unicode="V" horiz-adv-x="1038" d="M10 1403h144q61 0 98.5 -41t46.5 -107q65 -454 225 -888q184 477 250 1036h131q57 -1 87 -47q20 -31 21 -73q0 -21 -5 -44q-58 -290 -123 -510q-118 -392 -295 -741h-58q-84 0 -139 108q-280 556 -383 1307z" />
<glyph unicode="W" horiz-adv-x="1642" d="M25 1403h147q56 0 92.5 -46t44.5 -108q61 -471 185 -846q121 387 213 947h88q70 0 124 -45t70 -136q74 -448 185 -766q67 200 121 468.5t83 529.5h127q51 1 83 -41q24 -32 24 -79q0 -15 -2 -32q-2 -18 -11 -71q-70 -352 -153.5 -644t-204.5 -546h-72q-74 0 -112 82 q-143 309 -232 798q-96 -528 -270 -880h-61q-83 0 -123 84q-129 277 -218 625.5t-128 705.5z" />
<glyph unicode="X" horiz-adv-x="1062" d="M39 1403h141q50 0 101 -43.5t118 -171.5l150 -285q116 159 171.5 276.5t78.5 223.5h78q50 0 75 -35.5t25 -91.5q0 -79 -72 -211q-81 -146 -241 -379l153 -274q135 -241 242 -342q-30 -43 -60.5 -62.5t-87.5 -19.5q-75 0 -133.5 57.5t-142.5 210.5l-146 266 q-114 -177 -165.5 -294t-65.5 -228h-102q-44 0 -69.5 29t-25.5 71q0 198 218 502l96 135l-133 248q-16 30 -49 90.5t-46.5 85.5t-35.5 68.5t-32.5 67.5t-22 53t-17.5 53z" />
<glyph unicode="Y" horiz-adv-x="974" d="M10 1401h109q61 0 105.5 -29.5t58.5 -71.5q84 -245 215 -497q174 327 245 598h129q35 0 56.5 -26t21.5 -56q0 -75 -126 -338t-214 -387v-594h-104q-60 0 -104 44.5t-44 123.5v426q-103 159 -199.5 382t-148.5 425z" />
<glyph unicode="Z" horiz-adv-x="1001" d="M72 117q0 86 40.5 178t135.5 235l289 433q41 61 55.5 83.5t36.5 65.5t28 70h-585v67q0 73 41 113.5t125 40.5h581q44 0 77.5 -37.5t33.5 -81.5q0 -89 -37 -177t-105 -189l-282 -416q-48 -69 -72 -105.5t-51.5 -87.5t-34.5 -86h584v-94q0 -53 -42 -91t-89 -38h-615 q-43 0 -78.5 30.5t-35.5 86.5z" />
<glyph unicode="[" horiz-adv-x="552" d="M150 -348v1823h274q43 0 71.5 -26.5t28.5 -72.5v-57h-200v-1509h100q42 0 71 -26t29 -73v-59h-374z" />
<glyph unicode="\" horiz-adv-x="714" d="M14 1403h95q43 0 92 -34.5t67 -86.5l428 -1282h-78q-57 0 -109.5 36.5t-78.5 113.5z" />
<glyph unicode="]" horiz-adv-x="552" d="M29 -193h200v1510h-100q-42 0 -71 25.5t-29 72.5v60h374v-1823h-274q-43 0 -71.5 26t-28.5 72v57z" />
<glyph unicode="^" horiz-adv-x="753" d="M70 893q0 16 18 70q32 92 104.5 235.5t143.5 249.5h37q46 0 92 -76q49 -79 122 -250t107 -299h-76q-93 0 -116 84q-18 70 -129 334q-11 -24 -56 -119t-77.5 -170t-51.5 -133h-41q-37 0 -57 20.5t-20 53.5z" />
<glyph unicode="_" horiz-adv-x="923" d="M2 -406h922v-188h-922v188z" />
<glyph unicode="`" horiz-adv-x="1083" d="M135 1444q0 53 29 78.5t78 25.5q50 0 93 -30.5t93 -87.5q56 -63 125 -179v-10h-84q-105 0 -213 53q-121 59 -121 150z" />
<glyph unicode="a" horiz-adv-x="899" d="M74 324q0 166 106.5 259t335.5 93h68v43q0 113 -42 154.5t-139 41.5q-203 0 -280 -124h-12v94q0 42 18 83.5t55 78.5t103.5 60t152.5 23q85 0 152.5 -24.5t119.5 -77t79.5 -141t27.5 -209.5v-301q0 -188 -91 -295t-255 -107q-177 0 -288 87t-111 262zM311 336 q0 -72 38 -111t110 -39q66 0 96.5 41.5t30.5 141.5v118h-70q-114 0 -159.5 -37t-45.5 -114z" />
<glyph unicode="b" horiz-adv-x="1058" d="M111 532v943h57q95 0 139.5 -45.5t44.5 -141.5v-315q28 67 91.5 112t144.5 45q73 0 142 -34t127.5 -99.5t94 -175t35.5 -246.5q0 -128 -28 -236.5t-82.5 -190t-141.5 -127.5t-198 -46q-191 0 -308.5 148t-117.5 409zM352 573q0 -205 52.5 -290.5t154.5 -85.5q88 0 133 95 t45 234q0 114 -14 191t-42 116.5t-61 55.5t-79 16q-81 0 -135 -88.5t-54 -243.5z" />
<glyph unicode="c" horiz-adv-x="860" d="M68 530q0 265 132 432.5t359 167.5q112 0 182 -68t70 -171v-121h-14q-25 64 -86 98.5t-152 34.5q-98 0 -170 -93.5t-72 -236.5q0 -169 67.5 -269.5t178.5 -100.5q168 0 230 114h14v-112q0 -103 -76 -166.5t-201 -63.5q-93 0 -177.5 42t-147.5 114.5t-100 176.5t-37 222z " />
<glyph unicode="d" horiz-adv-x="1046" d="M70 530q0 287 107.5 443.5t309.5 156.5q68 0 124.5 -41.5t84.5 -111.5v498h58q182 0 182 -189v-774q0 -537 -422 -537q-129 0 -230.5 72.5t-157.5 199t-56 283.5zM315 584q0 -185 57.5 -286t151.5 -101q87 0 128.5 75.5t41.5 245.5q0 204 -55.5 297.5t-151.5 93.5 q-79 0 -125.5 -87t-46.5 -238z" />
<glyph unicode="e" horiz-adv-x="948" d="M72 530q0 279 120.5 439.5t321.5 160.5q153 0 260 -109.5t107 -297.5q0 -154 -92 -214t-316 -63l-158 -2q12 -123 78 -188.5t168 -65.5q181 0 273 105h10v-86q0 -106 -77.5 -170t-252.5 -64q-88 0 -167.5 38.5t-141 108t-97.5 175.5t-36 233zM313 631l101 2q147 3 192 24 t45 84q0 86 -41.5 133.5t-115.5 47.5q-42 0 -75 -19.5t-52.5 -50t-32 -70.5t-17 -77t-4.5 -74z" />
<glyph unicode="f" horiz-adv-x="630" d="M109 172v907q0 76 20.5 144.5t62 126t113 91.5t164.5 34q77 0 128.5 -45.5t51.5 -120.5v-95h-12q-31 22 -59.5 30.5t-77.5 8.5q-148 0 -148 -184v-104h252v-78q0 -64 -47.5 -100.5t-112.5 -36.5h-92v-750h-59q-86 0 -135 45t-49 127z" />
<glyph unicode="g" horiz-adv-x="1017" d="M74 578q0 107 31 205t89 176t149.5 124.5t203.5 46.5q167 0 264.5 -113.5t97.5 -334.5v-365q0 -33 3 -108t3 -111q0 -202 -117.5 -327t-308.5 -125q-158 0 -256 62.5t-98 166.5v107h10q46 -51 132 -81t188 -30q99 0 154 52.5t55 180.5q0 9 -3 50t-3 55v47 q-21 -62 -80 -104.5t-133 -42.5q-168 0 -274.5 127.5t-106.5 341.5zM324 616q0 -292 176 -292q79 0 123.5 77.5t44.5 221.5q0 71 -7.5 121.5t-20 82t-34.5 49.5t-46.5 24.5t-59.5 6.5q-66 0 -121 -84.5t-55 -206.5z" />
<glyph unicode="h" horiz-adv-x="1024" d="M111 162v1313h55q93 0 140.5 -44.5t47.5 -127.5v-310q23 55 86 96t123 41q167 0 259.5 -116t92.5 -355v-659h-81q-73 0 -118.5 43.5t-45.5 118.5v485q0 145 -41.5 201.5t-122.5 56.5q-66 0 -110 -59.5t-44 -190.5v-655h-82q-76 0 -117.5 44t-41.5 118z" />
<glyph unicode="i" horiz-adv-x="557" d="M96 1352q0 60 42 102.5t102 42.5t102.5 -42.5t42.5 -102.5t-42.5 -102t-102.5 -42t-102 42t-42 102zM121 313v793h88q68 0 110.5 -44t42.5 -120v-604q0 -81 32.5 -112t111.5 -31h41v-66q0 -141 -144 -141q-282 0 -282 325z" />
<glyph unicode="j" horiz-adv-x="534" d="M-66 -160l105 13q58 7 87.5 45t29.5 129v1079h80q73 0 117 -44.5t44 -121.5v-928q0 -168 -85 -264t-222 -96q-67 0 -111.5 31.5t-44.5 80.5v76zM133 1354q0 60 43 101.5t103 41.5t101.5 -41.5t41.5 -101.5t-41.5 -103t-101.5 -43t-103 43t-43 103z" />
<glyph unicode="k" horiz-adv-x="958" d="M111 168v1307h92q69 0 110 -45t41 -111v-686q143 240 260 389q37 47 80 65.5t105 18.5h137v-10q-50 -56 -168.5 -225.5t-185.5 -280.5q3 -5 81.5 -134t127.5 -194q54 -71 91 -99t74 -30q-19 -80 -51.5 -111.5t-99.5 -31.5q-44 0 -85.5 21.5t-70.5 60.5q-132 181 -295 463 v-535h-80q-78 0 -120.5 47.5t-42.5 120.5z" />
<glyph unicode="l" horiz-adv-x="577" d="M119 307v1168h67q80 0 127 -43t47 -119v-981q0 -82 34.5 -113t117.5 -31h55v-63q0 -71 -40 -107t-115 -36q-143 0 -218 81t-75 244z" />
<glyph unicode="m" horiz-adv-x="1552" d="M111 172v471q0 236 100 361.5t305 125.5q88 0 159.5 -44t115.5 -119q35 69 107.5 116t154.5 47q184 0 286.5 -115t102.5 -360v-655h-72q-90 0 -132 42.5t-42 129.5v483q0 138 -38 195t-118 57q-143 0 -143 -233v-674h-72q-78 0 -124 45t-46 127v483q0 138 -40.5 195 t-118.5 57q-70 0 -107 -55.5t-37 -183.5v-668h-73q-74 0 -121 47.5t-47 124.5z" />
<glyph unicode="n" horiz-adv-x="1024" d="M109 162v497q0 218 104 344.5t315 126.5q174 0 280.5 -119.5t106.5 -348.5v-662h-81q-73 0 -116.5 43t-43.5 119v479q0 152 -40.5 209t-133.5 57q-148 0 -148 -256v-651h-88q-72 0 -113.5 43.5t-41.5 118.5z" />
<glyph unicode="o" horiz-adv-x="1013" d="M70 532q0 273 114.5 435.5t333.5 162.5q133 0 231 -75t146.5 -200.5t48.5 -283.5q0 -174 -48.5 -306.5t-151 -211t-246.5 -78.5q-133 0 -232 77t-147.5 202t-48.5 278zM315 571q0 -186 48.5 -279t152.5 -93q89 0 135.5 84.5t46.5 244.5q0 199 -49 290t-151 91 q-88 0 -135.5 -88.5t-47.5 -249.5z" />
<glyph unicode="p" horiz-adv-x="1048" d="M111 -145v690q0 301 113 443t333 142q190 0 304 -150t114 -396q0 -164 -30.5 -284.5t-85.5 -190t-123 -102t-150 -32.5q-77 0 -139 39.5t-93 108.5v-471h-59q-84 0 -134 53.5t-50 149.5zM352 594q0 -210 54 -302.5t157 -92.5q79 0 122.5 82.5t43.5 244.5q0 207 -51.5 295 t-155.5 88q-77 0 -123.5 -82t-46.5 -233z" />
<glyph unicode="q" horiz-adv-x="1052" d="M70 526q0 272 119.5 438t334.5 166q418 0 418 -552v-926h-82q-72 0 -116 46.5t-44 135.5v277q-30 -63 -92 -99.5t-129 -36.5q-121 0 -215 73.5t-144 198.5t-50 279zM313 575q0 -376 199 -376q93 0 140.5 86t47.5 278t-46 268t-150 76q-86 0 -138.5 -83.5t-52.5 -248.5z " />
<glyph unicode="r" horiz-adv-x="649" d="M109 168v512q0 199 84.5 316.5t255.5 117.5q190 0 190 -166v-94h-10q-53 37 -125 37q-77 0 -113.5 -55.5t-36.5 -180.5v-655h-63q-84 0 -133 45.5t-49 122.5z" />
<glyph unicode="s" horiz-adv-x="833" d="M68 758q0 159 103 265.5t286 106.5q140 0 212 -68t72 -167v-92h-10q-38 46 -104.5 77t-145.5 31q-172 0 -172 -131q0 -49 32 -75t136 -54q144 -39 216.5 -113t72.5 -192q0 -174 -99.5 -272.5t-281.5 -98.5q-129 0 -211 64t-82 162v102h10q43 -48 116.5 -78t156.5 -30 q149 0 149 129q0 53 -35.5 81.5t-140.5 55.5q-143 37 -211.5 108t-68.5 189z" />
<glyph unicode="t" horiz-adv-x="671" d="M109 358v723q0 63 16.5 108t54.5 89q55 65 115 65h55v-237h305v-96q0 -50 -36 -86.5t-101 -36.5h-168v-500q0 -100 34 -144t105 -44q107 0 156 49h10v-96q0 -81 -51 -128t-147 -47q-348 0 -348 381z" />
<glyph unicode="u" horiz-adv-x="1024" d="M109 455v653h65q180 0 180 -170v-461q0 -153 43.5 -215.5t128.5 -62.5q71 0 108.5 58.5t37.5 199.5v649h65q178 0 178 -168v-467q0 -249 -100.5 -372.5t-306.5 -123.5q-178 0 -288.5 121.5t-110.5 358.5z" />
<glyph unicode="v" horiz-adv-x="866" d="M18 1106h129q57 0 93 -39.5t43 -89.5q58 -372 163 -637q61 156 113.5 361.5t77.5 404.5h115q50 0 76 -31.5t26 -81.5q0 -39 -26.5 -152t-55.5 -210q-113 -378 -254 -645h-69q-71 0 -113 73q-114 202 -199 483.5t-119 563.5z" />
<glyph unicode="w" horiz-adv-x="1376" d="M25 1106h137q60 0 96 -39.5t43 -89.5q51 -393 131 -635q90 266 158 711h96q56 0 97.5 -34t50.5 -89q61 -337 143 -588q50 137 91.5 356t53.5 408h115q60 0 89.5 -32.5t29.5 -78.5q0 -181 -98.5 -497.5t-196.5 -505.5h-78q-49 0 -76 22t-51 78q-81 196 -160 551 q-26 -149 -82 -331.5t-118 -319.5h-72q-48 0 -75.5 18t-53.5 70q-90 178 -164.5 470.5t-105.5 555.5z" />
<glyph unicode="x" horiz-adv-x="921" d="M59 1106h134q45 0 88.5 -41.5t97.5 -140.5l96 -179q95 139 131 228q32 77 39 133h90q50 0 74 -36q22 -33 22 -83v-8q-3 -73 -96 -225q-99 -159 -143 -224l129 -237q53 -97 92.5 -134.5t85.5 -37.5q0 -65 -35.5 -101t-107.5 -36q-76 0 -130 54.5t-147 221.5l-55 100 q-78 -120 -111 -194q-35 -81 -45 -168h-102q-42 0 -71 30.5t-29 73.5q0 76 41.5 164.5t130.5 216.5l69 101l-139 252q-84 152 -109 270z" />
<glyph unicode="y" horiz-adv-x="882" d="M25 1106h131q51 0 91.5 -34.5t47.5 -86.5q22 -155 67 -334t99 -307q59 163 110 376.5t64 385.5h115q43 0 72.5 -29.5t29.5 -70.5q0 -107 -53.5 -321t-145.5 -456q-130 -339 -214 -461t-199 -122q-166 0 -166 131v71l94 7q56 3 92.5 44.5t79.5 170.5q-102 175 -198 497 t-117 539z" />
<glyph unicode="z" horiz-adv-x="845" d="M72 131q0 108 141 311l229 332q57 83 60 119h-430v80q0 59 40 96t111 37h410q69 0 105 -39t36 -94q0 -139 -96 -275l-250 -356q-69 -98 -76 -127h428v-98q0 -47 -35 -82t-81 -35h-441q-74 0 -112.5 37t-38.5 94z" />
<glyph unicode="{" horiz-adv-x="677" d="M43 559v70l88 16q84 15 84 164q0 105 -6 190q-4 39 -4 195q0 127 72.5 204t193.5 77h80q44 0 76 -28t32 -71v-73h-106q-63 0 -94 -31t-31 -107q0 -90 4 -164q8 -140 6 -221q-8 -177 -155 -219l2 -4q71 -24 112 -90t41 -170q0 -91 -6 -162q-4 -47 -4 -168 q0 -70 26.5 -105.5t69.5 -35.5h33q34 0 66 -30t32 -62v-82h-184q-124 0 -195 77t-71 214q0 69 6 207q8 164 8 182q0 55 -22 89.5t-60 43.5q-49 12 -71.5 34.5t-22.5 59.5z" />
<glyph unicode="|" horiz-adv-x="526" d="M193 -256v1731h40q33 0 59.5 -22.5t26.5 -59.5v-1741h-43q-32 0 -57.5 26t-25.5 66z" />
<glyph unicode="}" horiz-adv-x="677" d="M18 -178h107q63 0 94 30.5t31 106.5q0 90 -4 164q-8 140 -6 221q8 177 155 219l-2 4q-71 24 -112 90t-41 170q0 91 6 162q4 47 4 168q0 70 -26.5 105.5t-69.5 35.5h-33q-34 0 -66 30.5t-32 62.5v82h184q124 0 195 -77t71 -214q0 -69 -6 -207q-8 -164 -8 -182 q0 -56 22 -90.5t60 -43.5q49 -12 71.5 -34.5t22.5 -59.5v-69l-88 -17q-84 -15 -84 -164q0 -105 6 -190q4 -39 4 -195q0 -126 -72.5 -203t-193.5 -77h-80q-44 0 -76.5 27.5t-32.5 70.5v74z" />
<glyph unicode="~" horiz-adv-x="886" d="M106 567q0 95 57 150t142 55q29 0 58.5 -8.5t47 -17.5t46.5 -27q27 -18 61 -31.5t55 -13.5q69 0 72 108h64q24 0 46.5 -29.5t22.5 -78.5q0 -85 -53 -141t-147 -56q-31 0 -63 10.5t-46 18.5t-47 29q-59 36 -109 36q-28 0 -47 -24t-20 -68h-60q-27 0 -53.5 22.5t-26.5 65.5 z" />
<glyph unicode="&#xa1;" horiz-adv-x="534" d="M92 950q0 64 46 110t110 46t108.5 -45.5t44.5 -110.5t-44.5 -110t-108.5 -45q-65 0 -110.5 45.5t-45.5 109.5zM137 -195l25 834h78q57 0 90 -38.5t35 -104.5l26 -846h-115q-65 0 -102.5 41t-36.5 114z" />
<glyph unicode="&#xa2;" d="M115 535q0 224 89.5 373t254.5 188v282h61q53 0 78 -26.5t25 -83.5v-162q90 -11 147 -71t57 -148v-105h-10q-25 57 -81 89t-134 32q-111 0 -178.5 -89t-67.5 -247q0 -172 65.5 -268t174.5 -96q139 0 221 100h6v-90q0 -84 -57 -138.5t-143 -70.5v-272h-54q-110 0 -110 94 v180q-89 18 -157 71.5t-107.5 128.5t-59.5 158.5t-20 170.5z" />
<glyph unicode="&#xa3;" d="M63 606v68q0 54 34 86.5t96 32.5h30q-18 128 -18 180q0 192 117 320t305 128q100 0 176 -60.5t76 -150.5v-123h-11q-79 109 -231 109q-78 0 -132 -57t-54 -168q0 -60 20 -178h303v-74q0 -52 -38 -82.5t-95 -30.5h-154q1 -16 4 -55.5t3 -48.5q0 -138 -91 -281h525v-94 q0 -59 -39.5 -93t-114.5 -34h-653v59q0 37 20.5 95.5t44.5 93.5q82 119 82 241q0 80 -6 117h-199z" />
<glyph unicode="&#xa4;" d="M47 479v66q0 43 21 67.5t55 24.5h74q-4 38 -4 63l4 58h-150v67q0 42 23 67.5t53 25.5h78q35 235 159 372t306 137q131 0 206.5 -63.5t75.5 -173.5v-98h-10q-93 104 -219 104q-227 0 -260 -278h356v-66q0 -45 -24.5 -69.5t-65.5 -24.5h-274q-5 -35 -5 -58l5 -63h364v-64 q0 -41 -24 -67.5t-66 -26.5h-270q12 -140 77.5 -206t184.5 -66q138 0 221 100h10v-88q0 -112 -79 -178t-226 -66q-188 0 -302.5 132.5t-139.5 371.5h-154z" />
<glyph unicode="&#xa5;" d="M51 1403h107q56 0 98.5 -24.5t56.5 -61.5q104 -261 205 -426q67 108 138.5 251t107.5 261h100q37 0 60.5 -23t23.5 -55q0 -29 -26 -92q-45 -103 -140 -262t-151 -236h272v-69q0 -36 -29 -65.5t-77 -29.5h-183v-155h289v-72q0 -37 -31 -65.5t-75 -28.5h-183v-250h-98 q-51 0 -84 30.5t-33 88.5v131h-286v67q0 45 25 72t79 27h182v155h-286v68q0 96 104 96h160q-61 82 -174 315t-152 353z" />
<glyph unicode="&#xa6;" horiz-adv-x="526" d="M193 -256v723h40q33 0 59.5 -22.5t26.5 -59.5v-733h-43q-32 0 -57.5 26t-25.5 66zM193 752v723h40q33 0 59.5 -22.5t26.5 -59.5v-734h-43q-31 0 -57 26t-26 67z" />
<glyph unicode="&#xa7;" d="M141 588q0 160 154 268q-53 39 -83 99.5t-30 134.5q0 64 23 122.5t68 106t120 76t170 28.5q113 0 185.5 -59t72.5 -143v-91h-10q-78 103 -233 103q-76 0 -123 -33.5t-47 -89.5q0 -65 33 -100.5t153 -94.5q52 -26 89.5 -48t79 -55.5t67 -68.5t42.5 -83.5t17 -104.5 q0 -80 -38.5 -161.5t-92.5 -125.5q40 -35 67 -90t27 -117q0 -163 -99 -260.5t-282 -97.5q-135 0 -212 64.5t-77 164.5v105h11q56 -70 120.5 -105.5t153.5 -35.5q75 0 114.5 32t39.5 109q0 68 -47.5 113t-198.5 114q-120 55 -177 132t-57 192zM350 627q0 -69 29.5 -113 t95.5 -76q18 -9 75 -38t87 -46q23 31 33 65t10 97t-24 105.5t-83 72.5q-100 50 -165 88q-58 -62 -58 -155z" />
<glyph unicode="&#xa8;" horiz-adv-x="821" d="M100 1370q0 52 37 88.5t90 36.5t89 -36.5t36 -88.5q0 -53 -36.5 -91t-88.5 -38t-89.5 38t-37.5 91zM465 1370q0 52 36.5 88.5t88.5 36.5q53 0 91 -36.5t38 -88.5t-38.5 -90.5t-90.5 -38.5t-88.5 38t-36.5 91z" />
<glyph unicode="&#xa9;" horiz-adv-x="1630" d="M96 705q0 146 57 279t153 229t229.5 153t279.5 57t279.5 -57t229.5 -153t153 -229t57 -279t-57 -279.5t-153 -230t-229.5 -154t-279.5 -57.5t-279.5 57.5t-229.5 154t-153 230t-57 279.5zM236 705q0 -157 77.5 -290.5t211 -211.5t290.5 -78t290.5 78t211.5 211.5 t78 290.5t-78 290t-211.5 210t-290.5 77q-118 0 -225 -45.5t-184.5 -123t-123.5 -184.5t-46 -224zM473 698q0 185 107 300.5t290 115.5q106 0 169 -53t63 -131v-76h-17q-26 45 -80.5 78t-123.5 33q-110 0 -170 -69t-60 -175q0 -127 64.5 -195.5t167.5 -68.5q126 0 202 82h13 v-70q0 -69 -69 -117.5t-171 -48.5q-160 0 -272.5 112.5t-112.5 282.5z" />
<glyph unicode="&#xaa;" horiz-adv-x="675" d="M70 887q0 239 299 239h34v31q0 67 -25.5 92t-86.5 25q-72 0 -115.5 -21.5t-73.5 -64.5h-10v74q0 65 59 114t171 49q124 0 192 -76t68 -225v-168q0 -162 -60.5 -231.5t-197.5 -69.5q-111 0 -182.5 60.5t-71.5 171.5zM244 897q0 -98 90 -98q36 0 54 26.5t18 96.5v71h-41 q-64 0 -92.5 -23.5t-28.5 -72.5z" />
<glyph unicode="&#xab;" horiz-adv-x="909" d="M68 555l163 305q28 51 67 76t112 25h73l-204 -406l204 -408h-73q-68 0 -108 25t-71 80zM449 555l149 305q25 51 64.5 76t113.5 25h72l-186 -406l186 -408h-72q-69 0 -109.5 24.5t-68.5 80.5z" />
<glyph unicode="&#xac;" horiz-adv-x="1136" d="M53 643v264h1030v-731h-249v467h-781z" />
<glyph unicode="&#xad;" horiz-adv-x="622" d="M76 526v70q0 56 33 88.5t92 32.5h344v-74q0 -47 -32 -82t-81 -35h-356z" />
<glyph unicode="&#xae;" horiz-adv-x="1630" d="M96 705q0 146 57 279t153 229t229.5 153t279.5 57t279.5 -57t229.5 -153t153 -229t57 -279t-57 -279.5t-153 -230t-229.5 -154t-279.5 -57.5t-279.5 57.5t-229.5 154t-153 230t-57 279.5zM236 705q0 -157 77.5 -290.5t211 -211.5t290.5 -78t290.5 78t211.5 211.5 t78 290.5t-78 290t-211.5 210t-290.5 77q-118 0 -225 -45.5t-184.5 -123t-123.5 -184.5t-46 -224zM520 430v641q119 35 211 35h90q120 0 194.5 -64t74.5 -170q0 -69 -38.5 -125t-111.5 -75q8 -5 15 -10t13.5 -11t11 -10.5t10 -12.5t8 -11t8 -12.5t6.5 -11.5t6 -13l6 -11 q96 -187 117 -213q-2 -6 0 -10q-32 -29 -88 -29q-30 0 -54.5 9.5t-39 20t-31 36.5t-23 40t-22.5 50q-2 4 -11.5 27t-12.5 29t-12.5 23.5t-16 24l-17 17t-22.5 15t-27 7.5q-3 0 -22.5 3.5t-41.5 5.5v-308h-67q-56 0 -84.5 30.5t-28.5 82.5zM700 760q64 -6 101 -6q46 0 77 28 t31 74q0 107 -108 107h-45q-22 0 -56 -5v-198z" />
<glyph unicode="&#xaf;" horiz-adv-x="677" d="M123 1253v72q0 48 30 81.5t85 33.5h297v-88q0 -43 -29.5 -71t-73.5 -28h-309z" />
<glyph unicode="&#xb0;" horiz-adv-x="722" d="M94 1212q0 120 74.5 202.5t193.5 82.5q115 0 191 -78t76 -205q0 -118 -75.5 -199t-191.5 -81q-117 0 -192.5 80t-75.5 198zM238 1212q0 -58 34.5 -98.5t87.5 -40.5q57 0 93 39.5t36 99.5q0 61 -36 102.5t-91 41.5q-56 0 -90 -40t-34 -104z" />
<glyph unicode="&#xb1;" d="M74 719v96q0 43 34.5 77t88.5 34h204v331h103q42 0 74 -34t32 -90v-207h320v-90q0 -48 -40 -82.5t-106 -34.5h-174v-357h-84q-54 0 -89.5 38t-35.5 102v217h-327zM90 0v70q0 51 33.5 81.5t87.5 30.5h692v-76q0 -42 -33.5 -74t-76.5 -32h-703z" />
<glyph unicode="&#xb2;" horiz-adv-x="696" d="M86 653q0 48 27.5 95t85.5 108l145 152q46 50 66 81.5t20 65.5q0 50 -33.5 74t-89.5 24q-140 0 -203 -98h-6v68q0 94 64.5 148t197.5 54q114 0 189.5 -71.5t75.5 -188.5q0 -69 -25 -119t-78 -100l-172 -168q-32 -32 -43 -51h324v-70q0 -47 -31.5 -71.5t-81.5 -24.5h-340 q-39 0 -65.5 26.5t-26.5 65.5z" />
<glyph unicode="&#xb3;" horiz-adv-x="696" d="M92 719v80h6q70 -82 217 -82q57 0 86 26.5t29 67.5q0 51 -30 74t-91 26q-92 3 -92 78v62q47 6 96 6q57 0 84 22.5t27 71.5q0 50 -28.5 76t-98.5 26q-59 0 -112 -21.5t-81 -60.5h-6v86q0 67 64 117.5t188 50.5q110 0 188 -66t78 -175q0 -79 -30 -125.5t-76 -63.5 q44 -22 77.5 -70.5t33.5 -105.5q0 -131 -76 -203.5t-219 -72.5q-95 0 -164.5 46.5t-69.5 129.5z" />
<glyph unicode="&#xb4;" horiz-adv-x="700" d="M127 1241v10q69 116 125 179q50 57 93 87.5t93 30.5q49 0 78 -25.5t29 -78.5q0 -91 -121 -150q-108 -53 -213 -53h-84z" />
<glyph unicode="&#xb5;" horiz-adv-x="1001" d="M104 -211v1317h107q137 0 137 -141v-535q0 -132 38.5 -189t127.5 -57q72 0 110 56.5t38 193.5v672h102q67 0 104 -36t37 -105v-500q0 -243 -97.5 -366.5t-272.5 -123.5q-129 0 -191 107v-430h-102q-58 0 -98 35t-40 102z" />
<glyph unicode="&#xb6;" horiz-adv-x="960" d="M57 989q0 219 109 327.5t346 108.5q99 0 165 -13.5t102 -42t50.5 -64.5t14.5 -88v-1229h-56q-53 0 -80.5 29t-27.5 96v1087q0 42 -18.5 56t-63.5 14h-51v-1282h-53q-47 0 -79 30.5t-32 94.5v469h-39q-112 0 -199.5 109t-87.5 298z" />
<glyph unicode="&#xb7;" horiz-adv-x="512" d="M106 606q0 65 43.5 110.5t106.5 45.5t106.5 -45.5t43.5 -110.5q0 -64 -43.5 -108.5t-106.5 -44.5t-106.5 44.5t-43.5 108.5z" />
<glyph unicode="&#xb8;" horiz-adv-x="903" d="M250 -264h12q51 -43 148 -43q41 0 58 12.5t17 42.5q0 27 -19.5 44.5t-59.5 17.5q-45 0 -93 -11q31 134 41 201h117q0 -36 -6 -82q77 -3 125.5 -43t48.5 -119q0 -98 -61 -145t-160 -47q-168 0 -168 123v49z" />
<glyph unicode="&#xb9;" horiz-adv-x="696" d="M31 1309l147 75q77 41 152 41q39 0 68.5 -27.5t29.5 -72.5v-758h-80q-49 0 -79.5 30.5t-30.5 84.5v537l-54 -23q-57 -23 -95.5 -5.5t-47.5 66.5z" />
<glyph unicode="&#xba;" horiz-adv-x="675" d="M55 1026q0 184 75.5 291.5t215.5 107.5q130 0 203.5 -104.5t73.5 -269.5q0 -179 -75.5 -290.5t-215.5 -111.5q-128 0 -202.5 110t-74.5 267zM221 1051q0 -125 30 -185.5t95 -60.5q113 0 113 217q0 134 -31 191t-96 57q-53 0 -82 -56t-29 -163z" />
<glyph unicode="&#xbb;" horiz-adv-x="909" d="M70 147l186 408l-186 406h71q74 0 113.5 -25t64.5 -76l150 -305l-150 -303q-28 -56 -68.5 -80.5t-109.5 -24.5h-71zM434 147l205 408l-205 406h74q73 0 111.5 -25t66.5 -76l164 -305l-164 -303q-30 -56 -70 -80.5t-108 -24.5h-74z" />
<glyph unicode="&#xbc;" horiz-adv-x="1662" d="M92 1309l148 75q77 41 151 41q39 0 68.5 -27.5t29.5 -72.5v-758h-79q-49 0 -80 30.5t-31 84.5v537l-53 -23q-57 -23 -96 -5.5t-48 66.5zM473 106q0 46 21 101l454 1196h62q39 0 62.5 -29.5t23.5 -73.5q0 -31 -17 -77l-461 -1223h-59q-36 0 -61 28t-25 78zM928 281 q0 54 20 100q57 126 150 269.5t153 197.5h74q52 0 83.5 -35.5t31.5 -97.5v-357h102v-86q0 -38 -20.5 -58.5t-57.5 -20.5h-24v-193h-74q-54 0 -85.5 24.5t-31.5 73.5v95h-213q-42 0 -75 26t-33 62zM1114 358h129v250q-62 -104 -129 -250z" />
<glyph unicode="&#xbd;" horiz-adv-x="1662" d="M92 1309l148 75q77 41 151 41q39 0 68.5 -27.5t29.5 -72.5v-758h-79q-49 0 -80 30.5t-31 84.5v537l-53 -23q-57 -23 -96 -5.5t-48 66.5zM473 106q0 46 21 101l454 1196h62q39 0 62.5 -29.5t23.5 -73.5q0 -31 -17 -77l-461 -1223h-59q-36 0 -61 28t-25 78zM1012 94 q0 47 27 93.5t85 107.5l146 151q46 49 66 81.5t20 66.5q0 50 -33.5 74t-89.5 24q-72 0 -121.5 -22.5t-83.5 -75.5h-6v68q0 93 65.5 147.5t198.5 54.5q114 0 189 -71.5t75 -188.5q0 -69 -25 -119t-77 -100l-174 -168q-23 -23 -43 -51h325v-70q0 -46 -31.5 -71t-80.5 -25h-342 q-37 0 -63.5 26.5t-26.5 67.5z" />
<glyph unicode="&#xbe;" horiz-adv-x="1662" d="M92 719v80h6q70 -82 217 -82q57 0 86 26.5t29 67.5q0 51 -30 74t-91 26q-92 3 -92 78v62q47 6 96 6q57 0 84 22.5t27 71.5q0 50 -28.5 76t-98.5 26q-59 0 -112 -21.5t-81 -60.5h-6v86q0 67 64 117.5t188 50.5q110 0 188 -66t78 -175q0 -79 -30 -125.5t-76 -63.5 q44 -22 77.5 -70.5t33.5 -105.5q0 -131 -76 -203.5t-219 -72.5q-95 0 -164.5 46.5t-69.5 129.5zM514 106q0 46 21 101l454 1196h62q39 0 62.5 -29.5t23.5 -73.5q0 -31 -17 -77l-461 -1223h-59q-36 0 -61 28t-25 78zM948 281q0 52 21 100q57 126 150 269.5t153 197.5h74 q52 0 83 -35.5t31 -97.5v-357h103v-86q0 -38 -20.5 -58.5t-57.5 -20.5h-25v-193h-74q-53 0 -84.5 24.5t-31.5 73.5v95h-213q-42 0 -75.5 26t-33.5 62zM1135 358h129v250q-62 -104 -129 -250z" />
<glyph unicode="&#xbf;" horiz-adv-x="827" d="M86 -29q0 170 123 316l133 157q45 55 45 136v98h88q44 0 76.5 -32.5t32.5 -78.5q0 -47 -2.5 -74t-21.5 -72.5t-56 -92.5l-129 -164q-28 -35 -37.5 -73.5t-9.5 -94.5q0 -77 42 -117.5t119 -40.5q174 0 244 131h10v-94q0 -94 -81.5 -169t-223.5 -75q-164 0 -258 96t-94 244 zM317 950q0 65 45 110.5t109 45.5q65 0 110.5 -46t45.5 -110t-45.5 -109.5t-110.5 -45.5q-64 0 -109 45t-45 110z" />
<glyph unicode="&#xc0;" horiz-adv-x="1073" d="M31 125q0 101 62 359.5t156.5 533t172.5 385.5h102q66 0 116.5 -39t78.5 -96q83 -175 190.5 -578.5t139.5 -689.5h-93q-73 0 -120.5 36t-53.5 89q-7 66 -37 233h-444q-24 -115 -57 -358h-109q-56 0 -80 31t-24 94zM205 1731q0 53 28.5 78.5t77.5 25.5q50 0 93.5 -31 t93.5 -88q58 -65 125 -178v-10h-84q-105 0 -213 53q-121 59 -121 150zM348 553h352q-28 141 -78.5 312.5t-97.5 285.5q-51 -121 -99 -284t-77 -314z" />
<glyph unicode="&#xc1;" horiz-adv-x="1073" d="M31 125q0 101 62 359.5t156.5 533t172.5 385.5h102q66 0 116.5 -39t78.5 -96q83 -175 190.5 -578.5t139.5 -689.5h-93q-73 0 -120.5 36t-53.5 89q-7 66 -37 233h-444q-24 -115 -57 -358h-109q-56 0 -80 31t-24 94zM348 553h352q-28 141 -78.5 312.5t-97.5 285.5 q-51 -121 -99 -284t-77 -314zM401 1526v10q67 113 125 178q50 57 93.5 88t93.5 31q49 0 77.5 -25.5t28.5 -78.5q0 -91 -121 -150q-108 -53 -213 -53h-84z" />
<glyph unicode="&#xc2;" horiz-adv-x="1073" d="M31 125q0 101 62 359.5t156.5 533t172.5 385.5h102q66 0 116.5 -39t78.5 -96q83 -175 190.5 -578.5t139.5 -689.5h-93q-73 0 -120.5 36t-53.5 89q-7 66 -37 233h-444q-24 -115 -57 -358h-109q-56 0 -80 31t-24 94zM248 1485v71q0 67 21.5 101t80.5 69l166 101l162 -98 q62 -36 84 -72.5t22 -106.5v-63l-270 123zM348 553h352q-28 141 -78.5 312.5t-97.5 285.5q-51 -121 -99 -284t-77 -314z" />
<glyph unicode="&#xc3;" horiz-adv-x="1073" d="M31 125q0 101 62 359.5t156.5 533t172.5 385.5h102q66 0 116.5 -39t78.5 -96q83 -175 190.5 -578.5t139.5 -689.5h-93q-73 0 -120.5 36t-53.5 89q-7 66 -37 233h-444q-24 -115 -57 -358h-109q-56 0 -80 31t-24 94zM180 1630q0 93 54 139t120 46q73 0 144 -56 q4 -3 17 -12.5t19 -13.5t17.5 -11.5t19 -10.5t17.5 -6t18 -3q62 0 62 72v45h51q32 0 54 -30t22 -81q0 -81 -47.5 -131.5t-129.5 -50.5q-64 0 -143 59q-75 55 -102 55t-45.5 -18t-18.5 -59v-37h-41q-36 0 -62 28.5t-26 75.5zM348 553h352q-28 141 -78.5 312.5t-97.5 285.5 q-51 -121 -99 -284t-77 -314z" />
<glyph unicode="&#xc4;" horiz-adv-x="1073" d="M31 125q0 101 62 359.5t156.5 533t172.5 385.5h102q66 0 116.5 -39t78.5 -96q83 -175 190.5 -578.5t139.5 -689.5h-93q-73 0 -120.5 36t-53.5 89q-7 66 -37 233h-444q-24 -115 -57 -358h-109q-56 0 -80 31t-24 94zM203 1655q0 52 37 88.5t90 36.5q52 0 88.5 -36t36.5 -89 t-36.5 -91t-88.5 -38t-89.5 38t-37.5 91zM348 553h352q-28 141 -78.5 312.5t-97.5 285.5q-51 -121 -99 -284t-77 -314zM567 1655q0 53 36.5 89t88.5 36q53 0 91 -36.5t38 -88.5q0 -53 -38.5 -91t-90.5 -38t-88.5 38t-36.5 91z" />
<glyph unicode="&#xc5;" horiz-adv-x="1073" d="M35 125q0 142 113.5 551.5t224.5 634.5q-37 27 -61.5 76t-24.5 108q0 107 65 172.5t172 65.5q109 0 171.5 -64.5t62.5 -171.5q0 -103 -72 -172q88 -130 212.5 -583.5t154.5 -741.5h-92q-73 0 -121 36t-54 89q-9 81 -36 233h-445q-24 -115 -57 -358h-109q-56 0 -80 31 t-24 94zM352 553h353q-28 140 -78.5 311.5t-98.5 286.5q-51 -121 -99 -284t-77 -314zM440 1493q0 -49 21.5 -78t64.5 -29q82 0 82 109q0 104 -84 104t-84 -106z" />
<glyph unicode="&#xc6;" horiz-adv-x="1503" d="M33 96q0 102 57 293q79 273 209 586.5t219 427.5h942v-88q0 -64 -39 -100.5t-118 -36.5h-453q23 -157 43 -361h434v-108q0 -109 -139 -109h-279l17 -174q11 -115 54.5 -166t149.5 -51h101q48 0 117 10.5t102 24.5v-111q0 -74 -52 -110.5t-181 -36.5h-107 q-193 0 -284 86.5t-117 292.5h-381q-57 -190 -86 -365h-113q-47 0 -71.5 27t-24.5 69zM395 561h291q-3 102 -25 298.5t-40 311.5q-52 -102 -125.5 -303.5t-100.5 -306.5z" />
<glyph unicode="&#xc7;" horiz-adv-x="1030" d="M86 686q0 213 70.5 381t203 264t306.5 96q146 0 234.5 -78.5t88.5 -207.5v-97h-12q-108 154 -299 154q-145 0 -242.5 -129.5t-97.5 -343.5q0 -259 96.5 -389.5t243.5 -130.5q111 0 182.5 35.5t118.5 103.5h10v-94q0 -118 -83 -192t-230 -83q0 -21 -4 -57q77 -3 125.5 -43 t48.5 -119q0 -98 -61 -145t-160 -47q-168 0 -168 123v49h16q51 -43 143 -43q41 0 58.5 13t17.5 42q0 27 -20 44.5t-60 17.5q-44 0 -92 -11q40 179 41 185q-69 13 -134.5 47t-128 93.5t-109 137.5t-75 187.5t-28.5 236.5z" />
<glyph unicode="&#xc8;" horiz-adv-x="964" d="M102 537v262q0 210 23 409q13 108 57 151.5t119 43.5h621v-96q0 -63 -39 -96t-111 -33h-403q-21 -159 -21 -363h443v-94q0 -58 -35.5 -89.5t-100.5 -31.5h-307v-78q0 -124 24.5 -191t75 -92.5t144.5 -25.5h76q149 0 237 37v-90q0 -172 -246 -172h-116q-441 0 -441 549z M217 1729q0 53 29 78.5t78 25.5q50 0 93 -31t93 -88q58 -65 125 -178v-10h-84q-105 0 -213 53q-121 59 -121 150z" />
<glyph unicode="&#xc9;" horiz-adv-x="964" d="M102 537v262q0 210 23 409q13 108 57 151.5t119 43.5h621v-96q0 -63 -39 -96t-111 -33h-403q-21 -159 -21 -363h443v-94q0 -58 -35.5 -89.5t-100.5 -31.5h-307v-78q0 -124 24.5 -191t75 -92.5t144.5 -25.5h76q149 0 237 37v-90q0 -172 -246 -172h-116q-441 0 -441 549z M412 1524v10q67 113 125 178q50 57 93 88t93 31q48 0 77 -26t29 -79q0 -91 -120 -149q-108 -53 -213 -53h-84z" />
<glyph unicode="&#xca;" horiz-adv-x="964" d="M102 537v262q0 210 23 409q13 108 57 151.5t119 43.5h621v-96q0 -63 -39 -96t-111 -33h-403q-21 -159 -21 -363h443v-94q0 -58 -35.5 -89.5t-100.5 -31.5h-307v-78q0 -124 24.5 -191t75 -92.5t144.5 -25.5h76q149 0 237 37v-90q0 -172 -246 -172h-116q-441 0 -441 549z M246 1485v71q0 67 21.5 101t80.5 69l166 101l162 -98q62 -36 84 -72.5t22 -106.5v-63l-270 123z" />
<glyph unicode="&#xcb;" horiz-adv-x="964" d="M102 537v262q0 210 23 409q13 108 57 151.5t119 43.5h621v-96q0 -63 -39 -96t-111 -33h-403q-21 -159 -21 -363h443v-94q0 -58 -35.5 -89.5t-100.5 -31.5h-307v-78q0 -124 24.5 -191t75 -92.5t144.5 -25.5h76q149 0 237 37v-90q0 -172 -246 -172h-116q-441 0 -441 549z M203 1657q0 52 37 88.5t90 36.5q52 0 88.5 -36t36.5 -89t-36.5 -91t-88.5 -38t-89.5 38t-37.5 91zM567 1657q0 53 36.5 89t88.5 36q53 0 91 -36.5t38 -88.5q0 -53 -38.5 -91t-90.5 -38t-88.5 38t-36.5 91z" />
<glyph unicode="&#xcc;" horiz-adv-x="499" d="M-20 1729q0 53 28.5 78.5t77.5 25.5q50 0 93 -31t93 -88q58 -65 125 -178v-10h-84q-105 0 -213 53q-120 58 -120 150zM125 164v1239h106q59 0 101.5 -40.5t42.5 -105.5v-1257h-92q-65 0 -111.5 42.5t-46.5 121.5z" />
<glyph unicode="&#xcd;" horiz-adv-x="499" d="M84 1526v10q67 113 125 178q50 57 93 88t93 31q49 0 78 -25.5t29 -78.5q0 -91 -121 -150q-108 -53 -213 -53h-84zM125 164v1239h106q59 0 101.5 -40.5t42.5 -105.5v-1257h-92q-65 0 -111.5 42.5t-46.5 121.5z" />
<glyph unicode="&#xce;" horiz-adv-x="499" d="M-14 1483v71q0 67 21.5 101t80.5 69l166 101l162 -99q62 -36 84 -72t22 -106v-63l-270 123zM125 164v1239h106q59 0 101.5 -40.5t42.5 -105.5v-1257h-92q-65 0 -111.5 42.5t-46.5 121.5z" />
<glyph unicode="&#xcf;" horiz-adv-x="499" d="M-70 1655q0 52 37 88.5t90 36.5t89 -36t36 -89t-36.5 -91t-88.5 -38t-89.5 38t-37.5 91zM125 164v1239h106q59 0 101.5 -40.5t42.5 -105.5v-1257h-92q-65 0 -111.5 42.5t-46.5 121.5zM295 1655q0 53 36.5 89t88.5 36q53 0 91 -36.5t38 -88.5q0 -53 -38.5 -91t-90.5 -38 t-88.5 38t-36.5 91z" />
<glyph unicode="&#xd0;" horiz-adv-x="1165" d="M-8 608v90q0 43 26 72t70 29h27v553q46 21 136 40t152 19h129q89 0 170 -25.5t152.5 -81t124 -135t83 -194.5t30.5 -254q0 -335 -151 -534t-396 -199h-107q-153 0 -238 75t-85 226v319h-123zM360 336q0 -65 26.5 -94t90.5 -29h45q140 0 230 124.5t90 348.5 q0 253 -87 376.5t-247 123.5h-64q-37 0 -84 -15v-372h267v-94q0 -46 -27.5 -71.5t-79.5 -25.5h-160v-272z" />
<glyph unicode="&#xd1;" horiz-adv-x="1179" d="M119 166v1237h114q225 0 332 -285l191 -508q52 -138 73 -219v1012h107q50 0 87.5 -38t37.5 -99v-1266h-94q-46 0 -85.5 15t-82 52.5t-84.5 108t-82 174.5l-217 557q-8 20 -29 70t-31 76v-1053h-98q-55 0 -97 45.5t-42 120.5zM274 1630q0 93 54 139t121 46q72 0 143 -56 q4 -3 17 -12.5t19 -13.5t17.5 -11.5t19 -10.5t17.5 -6t18 -3q62 0 62 72v45h51q32 0 54 -30t22 -81q0 -81 -47 -131.5t-129 -50.5q-65 0 -144 59q-75 55 -102 55t-45.5 -18t-18.5 -59v-37h-41q-36 0 -62 28.5t-26 75.5z" />
<glyph unicode="&#xd2;" horiz-adv-x="1208" d="M86 682q0 346 137.5 545.5t394.5 199.5q104 0 194.5 -46t160 -132.5t109.5 -222t40 -303.5q0 -354 -143 -551t-387 -197q-103 0 -194 48t-161 136.5t-110.5 223.5t-40.5 299zM289 1729q0 53 28.5 78.5t77.5 25.5q50 0 93.5 -31t93.5 -88q58 -65 125 -178v-10h-84 q-105 0 -213 53q-121 59 -121 150zM330 723q0 -520 288 -520q117 0 189 121.5t72 359.5q0 267 -71 391.5t-212 124.5q-118 0 -192 -123t-74 -354z" />
<glyph unicode="&#xd3;" horiz-adv-x="1208" d="M86 682q0 346 137.5 545.5t394.5 199.5q104 0 194.5 -46t160 -132.5t109.5 -222t40 -303.5q0 -354 -143 -551t-387 -197q-103 0 -194 48t-161 136.5t-110.5 223.5t-40.5 299zM330 723q0 -520 288 -520q117 0 189 121.5t72 359.5q0 267 -71 391.5t-212 124.5 q-118 0 -192 -123t-74 -354zM469 1526v10q67 113 125 178q50 57 93 88t93 31q49 0 78 -25.5t29 -78.5q0 -91 -121 -150q-108 -53 -213 -53h-84z" />
<glyph unicode="&#xd4;" horiz-adv-x="1208" d="M86 682q0 346 137.5 545.5t394.5 199.5q104 0 194.5 -46t160 -132.5t109.5 -222t40 -303.5q0 -354 -143 -551t-387 -197q-103 0 -194 48t-161 136.5t-110.5 223.5t-40.5 299zM328 1483v71q0 67 21.5 101t80.5 69l166 101l162 -99q62 -36 84 -72t22 -106v-63l-270 123z M330 723q0 -520 288 -520q117 0 189 121.5t72 359.5q0 267 -71 391.5t-212 124.5q-118 0 -192 -123t-74 -354z" />
<glyph unicode="&#xd5;" horiz-adv-x="1208" d="M86 682q0 346 137.5 545.5t394.5 199.5q104 0 194.5 -46t160 -132.5t109.5 -222t40 -303.5q0 -354 -143 -551t-387 -197q-103 0 -194 48t-161 136.5t-110.5 223.5t-40.5 299zM297 1628q0 93 53.5 138.5t120.5 45.5q73 0 143 -55q3 -2 17.5 -12.5t19 -14t17 -11t20 -10.5 t17.5 -6t18 -3q61 0 61 72v45h52q32 0 53.5 -30t21.5 -81q0 -81 -47 -131.5t-129 -50.5q-64 0 -143 59q-75 55 -103 55q-27 0 -45 -18t-18 -59v-37h-41q-36 0 -62 28.5t-26 75.5zM330 723q0 -520 288 -520q117 0 189 121.5t72 359.5q0 267 -71 391.5t-212 124.5 q-118 0 -192 -123t-74 -354z" />
<glyph unicode="&#xd6;" horiz-adv-x="1208" d="M86 682q0 346 137.5 545.5t394.5 199.5q104 0 194.5 -46t160 -132.5t109.5 -222t40 -303.5q0 -354 -143 -551t-387 -197q-103 0 -194 48t-161 136.5t-110.5 223.5t-40.5 299zM293 1655q0 52 37 88.5t90 36.5q52 0 88.5 -36t36.5 -89t-36.5 -91t-88.5 -38t-89.5 38 t-37.5 91zM330 723q0 -520 288 -520q117 0 189 121.5t72 359.5q0 267 -71 391.5t-212 124.5q-118 0 -192 -123t-74 -354zM657 1655q0 53 36.5 89t88.5 36q53 0 91 -36.5t38 -88.5q0 -53 -38.5 -91t-90.5 -38t-88.5 38t-36.5 91z" />
<glyph unicode="&#xd7;" d="M76 952l67 60q80 70 148 -6l209 -240l270 307l68 -67q32 -30 30 -81t-41 -94l-192 -221l303 -356l-72 -74q-71 -74 -145 15l-221 258l-293 -326l-60 53q-26 25 -27 85t30 97l215 248z" />
<glyph unicode="&#xd8;" horiz-adv-x="1208" d="M86 680q0 163 34 297.5t101 235t174.5 156.5t247.5 56q153 0 281 -96l61 96h62q36 0 50.5 -23.5t14.5 -53.5q0 -44 -41 -105l-27 -41q127 -189 127 -483q0 -160 -37 -296t-106.5 -235.5t-176 -156t-237.5 -56.5q-164 0 -290 105l-68 -105h-55q-32 0 -50 22t-18 52 q0 50 51 133l21 33q-119 188 -119 465zM330 719q0 -154 28 -266l441 682q-71 65 -185 65q-95 0 -160.5 -64t-94.5 -170t-29 -247zM449 276q75 -75 196 -75q131 0 206 128.5t75 352.5q0 163 -33 285z" />
<glyph unicode="&#xd9;" horiz-adv-x="1140" d="M113 530v873h94q66 0 107.5 -48t41.5 -155v-663q0 -169 57 -247.5t169 -78.5q107 0 154.5 72.5t47.5 238.5v881h95q149 0 149 -195v-680q0 -269 -120 -411t-353 -142q-206 0 -324 145.5t-118 409.5zM254 1729q0 53 28.5 78.5t77.5 25.5q50 0 93.5 -31t93.5 -88 q58 -65 125 -178v-10h-84q-105 0 -213 53q-121 59 -121 150z" />
<glyph unicode="&#xda;" horiz-adv-x="1140" d="M113 530v873h94q66 0 107.5 -48t41.5 -155v-663q0 -169 57 -247.5t169 -78.5q107 0 154.5 72.5t47.5 238.5v881h95q149 0 149 -195v-680q0 -269 -120 -411t-353 -142q-206 0 -324 145.5t-118 409.5zM393 1526v10q67 113 125 178q50 57 93.5 88t93.5 31q49 0 77.5 -25.5 t28.5 -78.5q0 -91 -121 -150q-108 -53 -213 -53h-84z" />
<glyph unicode="&#xdb;" horiz-adv-x="1140" d="M113 530v873h94q66 0 107.5 -48t41.5 -155v-663q0 -169 57 -247.5t169 -78.5q107 0 154.5 72.5t47.5 238.5v881h95q149 0 149 -195v-680q0 -269 -120 -411t-353 -142q-206 0 -324 145.5t-118 409.5zM307 1483v71q0 67 22 101t81 69l165 101l162 -99q62 -36 84.5 -72 t22.5 -106v-63l-271 123z" />
<glyph unicode="&#xdc;" horiz-adv-x="1140" d="M113 530v873h94q66 0 107.5 -48t41.5 -155v-663q0 -169 57 -247.5t169 -78.5q107 0 154.5 72.5t47.5 238.5v881h95q149 0 149 -195v-680q0 -269 -120 -411t-353 -142q-206 0 -324 145.5t-118 409.5zM240 1655q0 52 37 88.5t90 36.5t89 -36t36 -89t-36.5 -91t-88.5 -38 t-89.5 38t-37.5 91zM604 1655q0 53 36 89t89 36t91 -36.5t38 -88.5q0 -53 -38 -91t-91 -38q-52 0 -88.5 38t-36.5 91z" />
<glyph unicode="&#xdd;" horiz-adv-x="974" d="M10 1401h109q61 0 105.5 -29.5t58.5 -71.5q84 -245 215 -497q174 327 245 598h129q35 0 56.5 -26t21.5 -56q0 -75 -126 -338t-214 -387v-594h-104q-60 0 -104 44.5t-44 123.5v426q-103 159 -199.5 382t-148.5 425zM375 1485v10q67 113 125 178q50 57 93 88t93 31 q49 0 78 -25.5t29 -78.5q0 -91 -121 -150q-108 -53 -213 -53h-84z" />
<glyph unicode="&#xde;" horiz-adv-x="970" d="M119 170v1233h106q59 0 101.5 -40.5t42.5 -105.5v-83q37 6 67 6h115q177 0 293.5 -116.5t116.5 -313.5q0 -216 -116 -345t-298 -129q-117 0 -178 31v-307l-7 2v-2h-92q-71 0 -111 42t-40 128zM369 510q47 -16 155 -16q86 0 138.5 57.5t52.5 167.5q0 239 -203 239h-41 q-39 0 -102 -14v-434z" />
<glyph unicode="&#xdf;" horiz-adv-x="1034" d="M113 154v831q0 109 34.5 197.5t94.5 146t139 88.5t170 31q161 0 269 -89t108 -237q0 -133 -109 -221l-76 -61q-49 -38 -49 -90q0 -32 16 -53.5t56 -51.5l90 -70q117 -88 117 -241q0 -163 -80.5 -254.5t-228.5 -91.5q-106 0 -165 43.5t-59 111.5v103h11q66 -56 159 -56 q57 0 89 35t32 101q0 61 -18 92.5t-68 73.5l-96 79q-66 54 -66 168q0 46 17.5 86.5t36 63t53.5 57.5l61 60q14 14 25.5 46.5t11.5 55.5q0 127 -147 127q-189 0 -189 -268v-967h-78q-76 0 -118.5 41.5t-42.5 112.5z" />
<glyph unicode="&#xe0;" horiz-adv-x="899" d="M74 324q0 166 106.5 259t335.5 93h68v43q0 113 -42 154.5t-139 41.5q-203 0 -280 -124h-12v94q0 42 18 83.5t55 78.5t103.5 60t152.5 23q85 0 152.5 -24.5t119.5 -77t79.5 -141t27.5 -209.5v-301q0 -188 -91 -295t-255 -107q-177 0 -288 87t-111 262zM145 1444 q0 53 29 78.5t78 25.5q50 0 93 -30.5t93 -87.5q56 -63 125 -179v-10h-84q-105 0 -213 53q-121 59 -121 150zM311 336q0 -72 38 -111t110 -39q66 0 96.5 41.5t30.5 141.5v118h-70q-114 0 -159.5 -37t-45.5 -114z" />
<glyph unicode="&#xe1;" horiz-adv-x="899" d="M74 324q0 166 106.5 259t335.5 93h68v43q0 113 -42 154.5t-139 41.5q-203 0 -280 -124h-12v94q0 42 18 83.5t55 78.5t103.5 60t152.5 23q85 0 152.5 -24.5t119.5 -77t79.5 -141t27.5 -209.5v-301q0 -188 -91 -295t-255 -107q-177 0 -288 87t-111 262zM301 1241v10 q69 116 125 179q50 57 93 87.5t93 30.5q49 0 78 -25.5t29 -78.5q0 -91 -121 -150q-108 -53 -213 -53h-84zM311 336q0 -72 38 -111t110 -39q66 0 96.5 41.5t30.5 141.5v118h-70q-114 0 -159.5 -37t-45.5 -114z" />
<glyph unicode="&#xe2;" horiz-adv-x="899" d="M70 324q0 166 106.5 259t335.5 93h68v43q0 113 -42 154.5t-139 41.5q-203 0 -280 -124h-13v94q0 42 18.5 83.5t55.5 78.5t103.5 60t152.5 23q85 0 152.5 -24.5t119.5 -77t79.5 -141t27.5 -209.5v-301q0 -188 -91 -295t-255 -107q-177 0 -288 87t-111 262zM168 1200v72 q0 67 21.5 101t80.5 69l166 100l162 -98q62 -36 84.5 -72t22.5 -106v-64l-271 123zM307 336q0 -72 38 -111t110 -39q66 0 96.5 41.5t30.5 141.5v118h-70q-114 0 -159.5 -37t-45.5 -114z" />
<glyph unicode="&#xe3;" horiz-adv-x="899" d="M74 324q0 166 106.5 259t335.5 93h68v43q0 113 -42 154.5t-139 41.5q-203 0 -280 -124h-12v94q0 42 18 83.5t55 78.5t103.5 60t152.5 23q85 0 152.5 -24.5t119.5 -77t79.5 -141t27.5 -209.5v-301q0 -188 -91 -295t-255 -107q-177 0 -288 87t-111 262zM129 1346 q0 93 53.5 138.5t120.5 45.5q73 0 143 -55q3 -2 20.5 -15t24 -17t20 -12t24 -11t20.5 -3q61 0 61 72v45h52q32 0 53.5 -30t21.5 -81q0 -81 -47 -131.5t-129 -50.5q-64 0 -143 59q-77 56 -102 56q-27 0 -45.5 -18.5t-18.5 -59.5v-37h-41q-36 0 -62 29t-26 76zM311 336 q0 -72 38 -111t110 -39q66 0 96.5 41.5t30.5 141.5v118h-70q-114 0 -159.5 -37t-45.5 -114z" />
<glyph unicode="&#xe4;" horiz-adv-x="899" d="M74 324q0 166 106.5 259t335.5 93h68v43q0 113 -42 154.5t-139 41.5q-203 0 -280 -124h-12v94q0 42 18 83.5t55 78.5t103.5 60t152.5 23q85 0 152.5 -24.5t119.5 -77t79.5 -141t27.5 -209.5v-301q0 -188 -91 -295t-255 -107q-177 0 -288 87t-111 262zM131 1368 q0 52 37 88.5t90 36.5q52 0 88.5 -36.5t36.5 -88.5q0 -53 -36.5 -91t-88.5 -38t-89.5 38t-37.5 91zM311 336q0 -72 38 -111t110 -39q66 0 96.5 41.5t30.5 141.5v118h-70q-114 0 -159.5 -37t-45.5 -114zM496 1368q0 52 36 88.5t89 36.5t91 -36.5t38 -88.5t-38 -90.5 t-91 -38.5q-52 0 -88.5 38t-36.5 91z" />
<glyph unicode="&#xe5;" horiz-adv-x="899" d="M74 324q0 166 106.5 259t335.5 93h68v43q0 113 -42 154.5t-139 41.5q-203 0 -280 -124h-12v94q0 42 18 83.5t55 78.5t103.5 60t152.5 23q85 0 152.5 -24.5t119.5 -77t79.5 -141t27.5 -209.5v-301q0 -188 -91 -295t-255 -107q-177 0 -288 87t-111 262zM203 1456 q0 112 64 175t173 63q110 0 172 -63t62 -173q0 -105 -63 -170t-171 -65q-107 0 -172 63.5t-65 169.5zM311 336q0 -72 38 -111t110 -39q66 0 96.5 41.5t30.5 141.5v118h-70q-114 0 -159.5 -37t-45.5 -114zM356 1456q0 -48 22 -78t60 -30q86 0 86 110q0 53 -22 82t-62 29 t-62 -29t-22 -84z" />
<glyph unicode="&#xe6;" horiz-adv-x="1449" d="M74 305q0 161 111.5 262t295.5 101h105v57q0 102 -41.5 145t-134.5 43q-219 0 -291 -131h-8v103q0 45 19.5 87t57 77.5t101.5 57t145 21.5q100 0 179.5 -44t115.5 -126q39 81 114.5 125.5t168.5 44.5q147 0 255.5 -106t108.5 -287q0 -160 -91.5 -218t-313.5 -58 q-31 0 -154 6q2 -127 68 -202t182 -75q175 0 266 105h8v-113q0 -91 -91 -148t-238 -57q-96 0 -180 46.5t-125 125.5q-31 -74 -110.5 -123t-174.5 -49q-71 0 -131.5 19t-110 57t-78 103.5t-28.5 150.5zM311 328q0 -74 35 -110t109 -36q137 0 137 195v104h-84 q-197 0 -197 -153zM815 655l92 -2q155 -3 198.5 12t43.5 76q0 88 -40 135.5t-118 47.5q-89 0 -132.5 -73t-43.5 -196z" />
<glyph unicode="&#xe7;" horiz-adv-x="860" d="M68 530q0 265 132 432.5t359 167.5q112 0 182 -68t70 -171v-121h-14q-25 64 -86 98.5t-152 34.5q-98 0 -170 -93.5t-72 -236.5q0 -169 67.5 -269.5t178.5 -100.5q168 0 230 114h14v-112q0 -97 -67 -160t-181 -70q0 -21 -4 -57q77 -3 125.5 -43t48.5 -119 q0 -97 -62 -144.5t-161 -47.5q-166 0 -166 123v49h16q51 -43 142 -43q41 0 59 13t18 42q0 27 -20.5 44.5t-60.5 17.5q-43 0 -91 -11q19 87 39 187q-162 36 -268 185.5t-106 358.5z" />
<glyph unicode="&#xe8;" horiz-adv-x="948" d="M72 530q0 279 120.5 439.5t321.5 160.5q153 0 260 -109.5t107 -297.5q0 -154 -92 -214t-316 -63l-158 -2q12 -123 78 -188.5t168 -65.5q181 0 273 105h10v-86q0 -106 -77.5 -170t-252.5 -64q-88 0 -167.5 38.5t-141 108t-97.5 175.5t-36 233zM182 1446q0 53 29 78.5 t78 25.5q50 0 93 -30.5t93 -87.5q56 -63 125 -179v-10h-84q-105 0 -213 53q-121 59 -121 150zM313 631l101 2q147 3 192 24t45 84q0 86 -41.5 133.5t-115.5 47.5q-42 0 -75 -19.5t-52.5 -50t-32 -70.5t-17 -77t-4.5 -74z" />
<glyph unicode="&#xe9;" horiz-adv-x="948" d="M72 530q0 279 120.5 439.5t321.5 160.5q153 0 260 -109.5t107 -297.5q0 -154 -92 -214t-316 -63l-158 -2q12 -123 78 -188.5t168 -65.5q181 0 273 105h10v-86q0 -106 -77.5 -170t-252.5 -64q-88 0 -167.5 38.5t-141 108t-97.5 175.5t-36 233zM313 631l101 2q147 3 192 24 t45 84q0 86 -41.5 133.5t-115.5 47.5q-42 0 -75 -19.5t-52.5 -50t-32 -70.5t-17 -77t-4.5 -74zM383 1241v10q69 116 125 179q50 57 93 87.5t93 30.5q49 0 78 -25.5t29 -78.5q0 -91 -121 -150q-108 -53 -213 -53h-84z" />
<glyph unicode="&#xea;" horiz-adv-x="948" d="M72 530q0 279 120.5 439.5t321.5 160.5q153 0 260 -109.5t107 -297.5q0 -154 -92 -214t-316 -63l-158 -2q12 -123 78 -188.5t168 -65.5q181 0 273 105h10v-86q0 -106 -77.5 -170t-252.5 -64q-88 0 -167.5 38.5t-141 108t-97.5 175.5t-36 233zM236 1200v72q0 67 21.5 101 t80.5 69l166 100l162 -98q62 -36 84 -72t22 -106v-64l-270 123zM313 631l101 2q147 3 192 24t45 84q0 86 -41.5 133.5t-115.5 47.5q-42 0 -75 -19.5t-52.5 -50t-32 -70.5t-17 -77t-4.5 -74z" />
<glyph unicode="&#xeb;" horiz-adv-x="948" d="M72 530q0 279 120.5 439.5t321.5 160.5q153 0 260 -109.5t107 -297.5q0 -154 -92 -214t-316 -63l-158 -2q12 -123 78 -188.5t168 -65.5q181 0 273 105h10v-86q0 -106 -77.5 -170t-252.5 -64q-88 0 -167.5 38.5t-141 108t-97.5 175.5t-36 233zM176 1370q0 52 37 88.5 t90 36.5t89 -36.5t36 -88.5q0 -53 -36.5 -91t-88.5 -38t-89.5 38t-37.5 91zM313 631l101 2q147 3 192 24t45 84q0 86 -41.5 133.5t-115.5 47.5q-42 0 -75 -19.5t-52.5 -50t-32 -70.5t-17 -77t-4.5 -74zM541 1370q0 52 36.5 88.5t88.5 36.5q53 0 91 -36.5t38 -88.5 t-38.5 -90.5t-90.5 -38.5t-88.5 38t-36.5 91z" />
<glyph unicode="&#xec;" horiz-adv-x="557" d="M-49 1444q0 53 28.5 78.5t77.5 25.5q51 0 94.5 -31t92.5 -87q56 -63 125 -179v-10h-84q-105 0 -213 53q-121 59 -121 150zM133 305v801h76q85 0 124.5 -39.5t39.5 -124.5v-598q0 -90 34 -126t115 -36h33v-69q0 -66 -37.5 -98.5t-105.5 -32.5q-132 0 -205.5 79.5 t-73.5 243.5z" />
<glyph unicode="&#xed;" horiz-adv-x="557" d="M117 1241v10q69 116 125 179q50 57 93 87.5t93 30.5q49 0 78 -25.5t29 -78.5q0 -91 -121 -150q-108 -53 -213 -53h-84zM133 305v801h76q85 0 124.5 -39.5t39.5 -124.5v-598q0 -90 34 -126t115 -36h33v-69q0 -66 -37.5 -98.5t-105.5 -32.5q-132 0 -205.5 79.5t-73.5 243.5 z" />
<glyph unicode="&#xee;" horiz-adv-x="557" d="M-18 1200v72q0 67 21.5 101t80.5 69l166 100l162 -98q62 -36 84 -72t22 -106v-64l-270 123zM133 305v801h76q85 0 124.5 -39.5t39.5 -124.5v-598q0 -90 34 -126t115 -36h33v-69q0 -66 -37.5 -98.5t-105.5 -32.5q-132 0 -205.5 79.5t-73.5 243.5z" />
<glyph unicode="&#xef;" horiz-adv-x="557" d="M-59 1370q0 52 37 88.5t90 36.5q52 0 88.5 -36.5t36.5 -88.5q0 -53 -36.5 -91t-88.5 -38t-89.5 38t-37.5 91zM133 305v801h76q85 0 124.5 -39.5t39.5 -124.5v-598q0 -90 34 -126t115 -36h33v-69q0 -66 -37.5 -98.5t-105.5 -32.5q-132 0 -205.5 79.5t-73.5 243.5z M305 1370q0 52 36.5 88.5t88.5 36.5q53 0 91 -36.5t38 -88.5t-38.5 -90.5t-90.5 -38.5t-88.5 38t-36.5 91z" />
<glyph unicode="&#xf0;" horiz-adv-x="1013" d="M72 532q0 267 114.5 425.5t307.5 158.5q87 0 161 -84q-15 80 -56.5 147.5t-92.5 92.5l-156 -144q-21 20 -29.5 28.5t-19 29.5t-10.5 45q0 41 14 64t55 59q-69 19 -95.5 46t-26.5 77v102q181 0 307 -57l143 133q2 -2 12 -13t14 -15t12 -15t11.5 -18.5t7 -18.5t3.5 -21 q0 -71 -68 -127q256 -234 256 -759v-97q0 -274 -121 -435t-321 -161q-180 0 -301 154.5t-121 402.5zM311 584q0 -383 203 -383q66 0 108.5 53t58 125.5t15.5 161.5q0 374 -202 374q-49 0 -86 -28.5t-57.5 -77t-30 -105t-9.5 -120.5z" />
<glyph unicode="&#xf1;" horiz-adv-x="1024" d="M109 162v497q0 218 104 344.5t315 126.5q174 0 280.5 -119.5t106.5 -348.5v-662h-81q-73 0 -116.5 43t-43.5 119v479q0 152 -40.5 209t-133.5 57q-148 0 -148 -256v-651h-88q-72 0 -113.5 43.5t-41.5 118.5zM188 1346q0 93 53.5 138.5t120.5 45.5q74 0 144 -55 q4 -3 20.5 -15t23.5 -17t20 -12.5t23.5 -10.5t20.5 -3q62 0 62 72v45h51q32 0 54 -30t22 -81q0 -81 -47 -131.5t-129 -50.5q-65 0 -144 59q-77 56 -102 56q-27 0 -45.5 -18.5t-18.5 -59.5v-37h-41q-36 0 -62 29t-26 76z" />
<glyph unicode="&#xf2;" horiz-adv-x="1013" d="M70 532q0 273 114.5 435.5t333.5 162.5q133 0 231 -75t146.5 -200.5t48.5 -283.5q0 -174 -48.5 -306.5t-151 -211t-246.5 -78.5q-133 0 -232 77t-147.5 202t-48.5 278zM193 1444q0 53 28.5 78.5t77.5 25.5q50 0 93 -30.5t93 -87.5q56 -63 125 -179v-10h-84 q-105 0 -213 53q-120 58 -120 150zM315 571q0 -186 48.5 -279t152.5 -93q89 0 135.5 84.5t46.5 244.5q0 199 -49 290t-151 91q-88 0 -135.5 -88.5t-47.5 -249.5z" />
<glyph unicode="&#xf3;" horiz-adv-x="1013" d="M70 532q0 273 114.5 435.5t333.5 162.5q133 0 231 -75t146.5 -200.5t48.5 -283.5q0 -174 -48.5 -306.5t-151 -211t-246.5 -78.5q-133 0 -232 77t-147.5 202t-48.5 278zM315 571q0 -186 48.5 -279t152.5 -93q89 0 135.5 84.5t46.5 244.5q0 199 -49 290t-151 91 q-88 0 -135.5 -88.5t-47.5 -249.5zM373 1241v10q69 116 125 179q50 57 93 87.5t93 30.5q49 0 78 -25.5t29 -78.5q0 -91 -121 -150q-108 -53 -213 -53h-84z" />
<glyph unicode="&#xf4;" horiz-adv-x="1013" d="M70 532q0 273 114.5 435.5t333.5 162.5q133 0 231 -75t146.5 -200.5t48.5 -283.5q0 -174 -48.5 -306.5t-151 -211t-246.5 -78.5q-133 0 -232 77t-147.5 202t-48.5 278zM244 1200v72q0 67 21.5 101t80.5 69l166 100l162 -98q62 -36 84 -72t22 -106v-64l-270 123zM315 571 q0 -186 48.5 -279t152.5 -93q89 0 135.5 84.5t46.5 244.5q0 199 -49 290t-151 91q-88 0 -135.5 -88.5t-47.5 -249.5z" />
<glyph unicode="&#xf5;" horiz-adv-x="1013" d="M70 532q0 273 114.5 435.5t333.5 162.5q133 0 231 -75t146.5 -200.5t48.5 -283.5q0 -174 -48.5 -306.5t-151 -211t-246.5 -78.5q-133 0 -232 77t-147.5 202t-48.5 278zM203 1346q0 93 53.5 138.5t120.5 45.5q73 0 143 -55q3 -2 20.5 -15t24 -17t20 -12t24 -11t20.5 -3 q61 0 61 72v45h51q32 0 54 -30t22 -81q0 -81 -47 -131.5t-129 -50.5q-64 0 -143 59q-77 56 -103 56q-27 0 -45 -18.5t-18 -59.5v-37h-41q-36 0 -62 29t-26 76zM315 571q0 -186 48.5 -279t152.5 -93q89 0 135.5 84.5t46.5 244.5q0 199 -49 290t-151 91q-88 0 -135.5 -88.5 t-47.5 -249.5z" />
<glyph unicode="&#xf6;" horiz-adv-x="1013" d="M70 532q0 273 114.5 435.5t333.5 162.5q133 0 231 -75t146.5 -200.5t48.5 -283.5q0 -174 -48.5 -306.5t-151 -211t-246.5 -78.5q-133 0 -232 77t-147.5 202t-48.5 278zM203 1370q0 52 37 88.5t90 36.5q52 0 88.5 -36.5t36.5 -88.5q0 -53 -36.5 -91t-88.5 -38t-89.5 38 t-37.5 91zM315 571q0 -186 48.5 -279t152.5 -93q89 0 135.5 84.5t46.5 244.5q0 199 -49 290t-151 91q-88 0 -135.5 -88.5t-47.5 -249.5zM567 1370q0 52 36.5 88.5t88.5 36.5q53 0 91 -36.5t38 -88.5t-38.5 -90.5t-90.5 -38.5t-88.5 38t-36.5 91z" />
<glyph unicode="&#xf7;" horiz-adv-x="407" />
<glyph unicode="&#xf8;" horiz-adv-x="1013" d="M70 532q0 273 114.5 435.5t333.5 162.5q142 0 248 -88l63 88h54q31 0 44 -19.5t13 -43.5q0 -32 -37 -82l-43 -59q84 -147 84 -355q0 -174 -48.5 -306.5t-151 -211t-246.5 -78.5q-142 0 -250 93l-66 -93h-47q-29 0 -44 18t-15 42q0 47 43 106l33 45q-82 149 -82 346z M315 571q0 -78 9 -143l305 422q-47 59 -131 59q-88 0 -135.5 -88.5t-47.5 -249.5zM385 258q47 -59 131 -59q89 0 135.5 84.5t46.5 244.5q0 81 -10 156z" />
<glyph unicode="&#xf9;" horiz-adv-x="1024" d="M109 455v653h65q180 0 180 -170v-461q0 -153 43.5 -215.5t128.5 -62.5q71 0 108.5 58.5t37.5 199.5v649h65q178 0 178 -168v-467q0 -249 -100.5 -372.5t-306.5 -123.5q-178 0 -288.5 121.5t-110.5 358.5zM182 1444q0 53 29 78.5t78 25.5q50 0 93 -30.5t93 -87.5 q56 -63 125 -179v-10h-84q-105 0 -213 53q-121 59 -121 150z" />
<glyph unicode="&#xfa;" horiz-adv-x="1024" d="M109 455v653h65q180 0 180 -170v-461q0 -153 43.5 -215.5t128.5 -62.5q71 0 108.5 58.5t37.5 199.5v649h65q178 0 178 -168v-467q0 -249 -100.5 -372.5t-306.5 -123.5q-178 0 -288.5 121.5t-110.5 358.5zM340 1241v10q69 116 125 179q50 57 93 87.5t93 30.5 q49 0 78 -25.5t29 -78.5q0 -91 -121 -150q-108 -53 -213 -53h-84z" />
<glyph unicode="&#xfb;" horiz-adv-x="1024" d="M109 455v653h65q180 0 180 -170v-461q0 -153 43.5 -215.5t128.5 -62.5q71 0 108.5 58.5t37.5 199.5v649h65q178 0 178 -168v-467q0 -249 -100.5 -372.5t-306.5 -123.5q-178 0 -288.5 121.5t-110.5 358.5zM231 1200v72q0 67 22 101t81 69l166 100l162 -98q62 -36 84 -72 t22 -106v-64l-270 123z" />
<glyph unicode="&#xfc;" horiz-adv-x="1024" d="M109 455v653h65q180 0 180 -170v-461q0 -153 43.5 -215.5t128.5 -62.5q71 0 108.5 58.5t37.5 199.5v649h65q178 0 178 -168v-467q0 -249 -100.5 -372.5t-306.5 -123.5q-178 0 -288.5 121.5t-110.5 358.5zM186 1370q0 52 37 88.5t90 36.5t89 -36.5t36 -88.5 q0 -53 -36.5 -91t-88.5 -38t-89.5 38t-37.5 91zM551 1370q0 52 36.5 88.5t88.5 36.5q53 0 91 -36.5t38 -88.5t-38.5 -90.5t-90.5 -38.5t-88.5 38t-36.5 91z" />
<glyph unicode="&#xfd;" horiz-adv-x="882" d="M25 1106h131q51 0 91.5 -34.5t47.5 -86.5q22 -155 67 -334t99 -307q59 163 110 376.5t64 385.5h115q43 0 72.5 -29.5t29.5 -70.5q0 -107 -53.5 -321t-145.5 -456q-130 -339 -214 -461t-199 -122q-166 0 -166 131v71l94 7q56 3 92.5 44.5t79.5 170.5q-102 175 -198 497 t-117 539zM352 1241v10q69 116 125 179q49 56 92.5 87t94.5 31q49 0 77.5 -25.5t28.5 -78.5q0 -91 -121 -150q-108 -53 -213 -53h-84z" />
<glyph unicode="&#xfe;" horiz-adv-x="1048" d="M111 -145v1620h67q80 0 127 -43t47 -119v-244q87 61 205 61q190 0 304 -150t114 -396q0 -164 -30.5 -284.5t-85.5 -190t-123 -102t-150 -32.5q-163 0 -232 127v-450h-59q-84 0 -134 53.5t-50 149.5zM352 594q0 -210 54 -302.5t157 -92.5q79 0 122.5 82.5t43.5 244.5 q0 207 -51.5 295t-155.5 88q-77 0 -123.5 -82t-46.5 -233z" />
<glyph unicode="&#xff;" horiz-adv-x="882" d="M25 1106h131q51 0 91.5 -34.5t47.5 -86.5q22 -155 67 -334t99 -307q59 163 110 376.5t64 385.5h115q43 0 72.5 -29.5t29.5 -70.5q0 -107 -53.5 -321t-145.5 -456q-130 -339 -214 -461t-199 -122q-166 0 -166 131v71l94 7q56 3 92.5 44.5t79.5 170.5q-102 175 -198 497 t-117 539zM141 1370q0 52 37 88.5t90 36.5q52 0 88.5 -36.5t36.5 -88.5q0 -53 -36.5 -91t-88.5 -38t-89.5 38t-37.5 91zM506 1370q0 52 36 88.5t89 36.5t91 -36.5t38 -88.5t-38 -90.5t-91 -38.5q-52 0 -88.5 38t-36.5 91z" />
<glyph unicode="&#x152;" horiz-adv-x="1683" d="M86 690q0 165 32.5 298.5t96.5 231.5t165.5 151.5t233.5 53.5q91 0 187 -50t137 -132q9 67 60 113.5t118 46.5h520v-88q0 -139 -143 -139h-354q-37 -170 -37 -355h401v-94q0 -115 -133 -115h-268v-88q0 -174 47 -244.5t180 -70.5h55q125 0 252 31v-76q0 -90 -52 -134 t-179 -44h-115q-139 0 -222 54t-122 165q-46 -103 -136 -166.5t-218 -63.5q-107 0 -199.5 50t-160.5 141t-107 226.5t-39 297.5zM332 729q0 -267 77.5 -397.5t213.5 -130.5q122 0 179.5 126t57.5 386q0 268 -60 377.5t-200 109.5q-125 0 -196.5 -116t-71.5 -355z" />
<glyph unicode="&#x153;" horiz-adv-x="1583" d="M72 526q0 293 117 448.5t333 155.5q203 0 309 -186q46 83 124 134.5t173 51.5q162 0 266.5 -112.5t104.5 -296.5q0 -157 -87.5 -214.5t-311.5 -57.5h-164q9 -119 77 -186.5t171 -67.5q93 0 158.5 23.5t117.5 76.5h10v-72q0 -114 -83.5 -181t-251.5 -67 q-105 0 -198.5 54.5t-131.5 140.5q-39 -91 -119 -143t-186 -52q-192 0 -310 154t-118 397zM313 567q0 -188 51 -277t154 -89q180 0 180 327q0 143 -24 228.5t-66.5 120t-109.5 34.5q-83 0 -134 -93t-51 -251zM926 629h125h8q29 0 45 0.5t45 3t47 9t37 17.5t28 29t9 43 q0 96 -41 145.5t-117 49.5q-38 0 -68.5 -14.5t-50 -40.5t-33 -55.5t-20.5 -65.5t-10 -64t-4 -57z" />
<glyph unicode="&#x178;" horiz-adv-x="974" d="M10 1401h109q61 0 105.5 -29.5t58.5 -71.5q84 -245 215 -497q174 327 245 598h129q35 0 56.5 -26t21.5 -56q0 -75 -126 -338t-214 -387v-594h-104q-60 0 -104 44.5t-44 123.5v426q-103 159 -199.5 382t-148.5 425zM182 1655q0 52 37 88.5t90 36.5t89 -36t36 -89 t-36.5 -91t-88.5 -38t-89.5 38t-37.5 91zM547 1655q0 53 36.5 89t88.5 36q53 0 91 -36.5t38 -88.5q0 -53 -38.5 -91t-90.5 -38t-88.5 38t-36.5 91z" />
<glyph unicode="&#x2c6;" horiz-adv-x="962" d="M229 1200v72q0 67 22 101t81 69l166 100l161 -98q62 -36 84.5 -72t22.5 -106v-64l-270 123z" />
<glyph unicode="&#x2dc;" horiz-adv-x="757" d="M61 1346q0 93 54 138.5t121 45.5q73 0 143 -55q4 -3 20.5 -15t23.5 -17t20 -12.5t23.5 -10.5t20.5 -3q62 0 62 72v45h51q32 0 54 -30t22 -81q0 -81 -47 -131.5t-129 -50.5q-65 0 -144 59q-77 56 -102 56q-27 0 -45.5 -18.5t-18.5 -59.5v-37h-40q-36 0 -62.5 29t-26.5 76z " />
<glyph unicode="&#x2000;" horiz-adv-x="917" />
<glyph unicode="&#x2001;" horiz-adv-x="1835" />
<glyph unicode="&#x2002;" horiz-adv-x="917" />
<glyph unicode="&#x2003;" horiz-adv-x="1835" />
<glyph unicode="&#x2004;" horiz-adv-x="611" />
<glyph unicode="&#x2005;" horiz-adv-x="458" />
<glyph unicode="&#x2006;" horiz-adv-x="305" />
<glyph unicode="&#x2007;" horiz-adv-x="305" />
<glyph unicode="&#x2008;" horiz-adv-x="229" />
<glyph unicode="&#x2009;" horiz-adv-x="367" />
<glyph unicode="&#x200a;" horiz-adv-x="101" />
<glyph unicode="&#x2010;" horiz-adv-x="622" d="M76 526v70q0 56 33 88.5t92 32.5h344v-74q0 -47 -32 -82t-81 -35h-356z" />
<glyph unicode="&#x2011;" horiz-adv-x="622" d="M76 526v70q0 56 33 88.5t92 32.5h344v-74q0 -47 -32 -82t-81 -35h-356z" />
<glyph unicode="&#x2012;" horiz-adv-x="622" d="M76 526v70q0 56 33 88.5t92 32.5h344v-74q0 -47 -32 -82t-81 -35h-356z" />
<glyph unicode="&#x2013;" d="M131 526v90q0 49 30.5 79t86.5 30h622v-100q0 -39 -30 -69t-72 -30h-637z" />
<glyph unicode="&#x2014;" horiz-adv-x="1521" d="M88 526v90q0 49 30.5 79t86.5 30h1227v-100q0 -39 -30.5 -69t-72.5 -30h-1241z" />
<glyph unicode="&#x2018;" horiz-adv-x="456" d="M61 1167q0 163 91 263t239 106v-18q-45 -41 -74.5 -94t-29.5 -105q0 -29 14.5 -60t32.5 -47q51 -51 51 -106q0 -70 -44 -112t-114 -42q-74 0 -120 57t-46 158z" />
<glyph unicode="&#x2019;" horiz-adv-x="456" d="M61 889v18q46 41 75.5 94.5t29.5 104.5q0 29 -14.5 59.5t-32.5 46.5q-51 51 -51 107q0 70 43.5 112t113.5 42q74 0 120 -57.5t46 -158.5q0 -163 -91 -262.5t-239 -105.5z" />
<glyph unicode="&#x201a;" horiz-adv-x="456" d="M61 -266q46 41 75.5 94t29.5 104q0 29 -14.5 60t-32.5 47q-51 51 -51 106q0 70 43.5 112t113.5 42q74 0 120 -57t46 -158q0 -163 -91 -263t-239 -106v19z" />
<glyph unicode="&#x201c;" horiz-adv-x="886" d="M78 1167q0 163 91 263t239 106v-18q-46 -41 -75.5 -94.5t-29.5 -104.5q0 -29 14.5 -60t32.5 -47q51 -51 51 -106q0 -70 -43.5 -112t-113.5 -42q-74 0 -120 57t-46 158zM487 1167q0 163 90.5 263t239.5 106v-18q-46 -40 -75 -93.5t-29 -105.5q0 -29 14.5 -60t32.5 -47 q51 -51 51 -106q0 -69 -44.5 -111.5t-113.5 -42.5q-75 0 -120.5 57t-45.5 158z" />
<glyph unicode="&#x201d;" horiz-adv-x="886" d="M70 889v18q45 41 74.5 94t29.5 105q0 29 -14.5 59.5t-32.5 46.5q-51 51 -51 107q0 70 43.5 112t113.5 42q74 0 120 -57.5t46 -158.5q0 -163 -90.5 -262.5t-238.5 -105.5zM479 889v18q46 41 75.5 94.5t29.5 104.5q0 28 -15 58.5t-32 47.5q-52 47 -52 107q0 70 44 112 t114 42q74 0 120 -57.5t46 -158.5q0 -163 -91 -262.5t-239 -105.5z" />
<glyph unicode="&#x201e;" horiz-adv-x="886" d="M78 -266q45 41 74.5 93.5t29.5 104.5q0 29 -14.5 60t-32.5 47q-51 51 -51 106q0 70 44 112t114 42q74 0 120 -57t46 -158q0 -163 -91 -263t-239 -106v19zM483 -266q46 41 75.5 94t29.5 104q0 29 -14.5 60t-32.5 47q-52 52 -52 106q0 70 44 112t114 42q74 0 120 -57 t46 -158q0 -163 -91 -263t-239 -106v19z" />
<glyph unicode="&#x2022;" horiz-adv-x="712" d="M113 743q0 103 70.5 173.5t172.5 70.5t173 -71t71 -173q0 -103 -70.5 -173t-173.5 -70t-173 70t-70 173z" />
<glyph unicode="&#x2026;" horiz-adv-x="1533" d="M111 156q0 64 45 109.5t108 45.5q65 0 110.5 -45.5t45.5 -109.5t-46 -110t-110 -46q-63 0 -108 46t-45 110zM606 156q0 64 45.5 109.5t108.5 45.5q64 0 109.5 -45.5t45.5 -109.5q0 -65 -45.5 -110.5t-109.5 -45.5q-63 0 -108.5 46t-45.5 110zM1112 156q0 64 45.5 109.5 t108.5 45.5q64 0 109.5 -45.5t45.5 -109.5q0 -65 -45.5 -110.5t-109.5 -45.5q-63 0 -108.5 46t-45.5 110z" />
<glyph unicode="&#x202f;" horiz-adv-x="367" />
<glyph unicode="&#x2039;" horiz-adv-x="544" d="M53 555l164 305q28 49 69.5 75t114.5 26h74l-201 -406l201 -408h-74q-69 0 -111.5 25.5t-72.5 79.5z" />
<glyph unicode="&#x203a;" horiz-adv-x="544" d="M49 145l201 408l-201 405h74q74 0 115.5 -25t68.5 -75l164 -305l-164 -303q-30 -54 -73.5 -79.5t-110.5 -25.5h-74z" />
<glyph unicode="&#x205f;" horiz-adv-x="458" />
<glyph unicode="&#x2122;" horiz-adv-x="1417" d="M31 1264v59q0 37 24 67.5t66 30.5h420v-71q0 -33 -27.5 -59.5t-64.5 -26.5h-80v-619h-80q-41 0 -65.5 23.5t-24.5 72.5v523h-168zM584 752q0 159 14 347t35 322h61q66 0 106.5 -35t57.5 -90q14 -45 29 -101.5t24 -93t25 -108t22 -96.5q63 241 93 338q46 149 88 186h43 q56 0 85 -39.5t38 -128.5q30 -300 30 -608h-71q-45 0 -72 28.5t-27 88.5q0 152 -14 412q-74 -292 -104 -388q-22 -71 -62 -141h-18q-43 0 -76.5 52.5t-61.5 174.5q-13 60 -71 306q-17 -285 -17 -533h-61q-41 0 -68.5 28t-27.5 79z" />
<glyph unicode="&#xe000;" horiz-adv-x="1105" d="M0 0v1106h1106v-1106h-1106z" />
<glyph unicode="&#xfb01;" horiz-adv-x="1175" d="M109 172v907q0 76 20.5 144.5t62 126t113 91.5t164.5 34q77 0 128.5 -45.5t51.5 -120.5v-95h-12q-31 22 -59.5 30.5t-77.5 8.5q-148 0 -148 -184v-104h252v-78q0 -64 -47.5 -100.5t-112.5 -36.5h-92v-750h-59q-86 0 -135 45t-49 127zM715 1352q0 60 41.5 102.5 t101.5 42.5t103 -42.5t43 -102.5t-43 -102t-103 -42t-101.5 42t-41.5 102zM739 313v793h88q69 0 111.5 -44.5t42.5 -119.5v-604q0 -81 32 -112t111 -31h41v-66q0 -141 -143 -141q-283 0 -283 325z" />
<glyph unicode="&#xfb02;" horiz-adv-x="1198" d="M109 172v907q0 76 20.5 144.5t62 126t113 91.5t164.5 34q77 0 128.5 -45.5t51.5 -120.5v-95h-12q-31 22 -59.5 30.5t-77.5 8.5q-148 0 -148 -184v-104h252v-78q0 -64 -47.5 -100.5t-112.5 -36.5h-92v-750h-59q-86 0 -135 45t-49 127zM739 307v1168h68q80 0 127 -43 t47 -119v-981q0 -82 34.5 -113t117.5 -31h55v-63q0 -71 -40.5 -107t-115.5 -36q-143 0 -218 81t-75 244z" />
</font>
</defs>
</svg>
